<?xml version="1.0" encoding="UTF-8" standalone="no"?><!DOCTYPE svg PUBLIC "-//W3C//DTD SVG 1.1//EN" "http://www.w3.org/Graphics/SVG/1.1/DTD/svg11.dtd"><!-- Generated by graphviz version 2.40.1 (20161225.0304)
 --><!-- Title: snakemake_dag Pages: 1 --><svg xmlns="http://www.w3.org/2000/svg" xmlns:xlink="http://www.w3.org/1999/xlink" width="3056pt" height="404pt" viewBox="0.00 0.00 3056.27 404.00">
<g id="graph0" class="graph" transform="scale(1 1) rotate(0) translate(4 400)">
<title>snakemake_dag</title>
<polygon fill="#ffffff" stroke="transparent" points="-4,4 -4,-400 3052.27,-400 3052.27,4 -4,4"/>
<!-- 0 -->
<g id="node1" class="node">
<title>0</title>
<path fill="none" stroke="#afd856" stroke-width="2" stroke-dasharray="5,2" d="M1574.968,-36C1574.968,-36 1544.968,-36 1544.968,-36 1538.968,-36 1532.968,-30 1532.968,-24 1532.968,-24 1532.968,-12 1532.968,-12 1532.968,-6 1538.968,0 1544.968,0 1544.968,0 1574.968,0 1574.968,0 1580.968,0 1586.968,-6 1586.968,-12 1586.968,-12 1586.968,-24 1586.968,-24 1586.968,-30 1580.968,-36 1574.968,-36"/>
<text text-anchor="middle" x="1559.968" y="-15" font-family="sans" font-size="10.00" fill="#000000">all</text>
</g>
<!-- 1 -->
<g id="node2" class="node">
<title>1</title>
<path fill="none" stroke="#56a9d8" stroke-width="2" stroke-dasharray="5,2" d="M85.904,-396C85.904,-396 12.032,-396 12.032,-396 6.032,-396 .032,-390 .032,-384 .032,-384 .032,-372 .032,-372 .032,-366 6.032,-360 12.032,-360 12.032,-360 85.904,-360 85.904,-360 91.904,-360 97.904,-366 97.904,-372 97.904,-372 97.904,-384 97.904,-384 97.904,-390 91.904,-396 85.904,-396"/>
<text text-anchor="middle" x="48.968" y="-381" font-family="sans" font-size="10.00" fill="#000000">rename_file</text>
<text text-anchor="middle" x="48.968" y="-369" font-family="sans" font-size="10.00" fill="#000000">name: 0h_no_dox_1</text>
</g>
<!-- 1&#45;&gt;0 -->
<g id="edge1" class="edge">
<title>1-&gt;0</title>
<path fill="none" stroke="#c0c0c0" stroke-width="2" d="M45.86,-359.8777C41.4664,-332.6417 33.968,-279.4948 33.968,-234 33.968,-234 33.968,-234 33.968,-162 33.968,-112.6587 55.4587,-95.2704 98.968,-72 163.5863,-37.4397 1300.8512,-21.2854 1522.6449,-18.4566"/>
<polygon fill="#c0c0c0" stroke="#c0c0c0" stroke-width="2" points="1522.8417,-21.9545 1532.7967,-18.3284 1522.7532,-14.9551 1522.8417,-21.9545"/>
</g>
<!-- 21 -->
<g id="node22" class="node">
<title>21</title>
<path fill="none" stroke="#56d8a9" stroke-width="2" stroke-dasharray="5,2" d="M103.968,-324C103.968,-324 73.968,-324 73.968,-324 67.968,-324 61.968,-318 61.968,-312 61.968,-312 61.968,-300 61.968,-300 61.968,-294 67.968,-288 73.968,-288 73.968,-288 103.968,-288 103.968,-288 109.968,-288 115.968,-294 115.968,-300 115.968,-300 115.968,-312 115.968,-312 115.968,-318 109.968,-324 103.968,-324"/>
<text text-anchor="middle" x="88.968" y="-303" font-family="sans" font-size="10.00" fill="#000000">qc</text>
</g>
<!-- 1&#45;&gt;21 -->
<g id="edge62" class="edge">
<title>1-&gt;21</title>
<path fill="none" stroke="#c0c0c0" stroke-width="2" d="M59.0617,-359.8314C63.5277,-351.7925 68.8755,-342.1666 73.8059,-333.2918"/>
<polygon fill="#c0c0c0" stroke="#c0c0c0" stroke-width="2" points="76.9415,-334.8546 78.7384,-324.4133 70.8224,-331.4551 76.9415,-334.8546"/>
</g>
<!-- 2 -->
<g id="node3" class="node">
<title>2</title>
<path fill="none" stroke="#56a9d8" stroke-width="2" stroke-dasharray="5,2" d="M208.904,-396C208.904,-396 135.032,-396 135.032,-396 129.032,-396 123.032,-390 123.032,-384 123.032,-384 123.032,-372 123.032,-372 123.032,-366 129.032,-360 135.032,-360 135.032,-360 208.904,-360 208.904,-360 214.904,-360 220.904,-366 220.904,-372 220.904,-372 220.904,-384 220.904,-384 220.904,-390 214.904,-396 208.904,-396"/>
<text text-anchor="middle" x="171.968" y="-381" font-family="sans" font-size="10.00" fill="#000000">rename_file</text>
<text text-anchor="middle" x="171.968" y="-369" font-family="sans" font-size="10.00" fill="#000000">name: 0h_no_dox_2</text>
</g>
<!-- 2&#45;&gt;0 -->
<g id="edge2" class="edge">
<title>2-&gt;0</title>
<path fill="none" stroke="#c0c0c0" stroke-width="2" d="M166.0299,-359.5823C157.8108,-332.4106 143.968,-279.8428 143.968,-234 143.968,-234 143.968,-234 143.968,-162 143.968,-112.6587 165.4937,-95.3357 208.968,-72 268.3984,-40.0995 1310.4545,-21.9478 1522.4956,-18.5756"/>
<polygon fill="#c0c0c0" stroke="#c0c0c0" stroke-width="2" points="1522.8501,-22.0705 1532.7936,-18.4131 1522.7396,-15.0714 1522.8501,-22.0705"/>
</g>
<!-- 22 -->
<g id="node23" class="node">
<title>22</title>
<path fill="none" stroke="#56d8a9" stroke-width="2" stroke-dasharray="5,2" d="M213.968,-324C213.968,-324 183.968,-324 183.968,-324 177.968,-324 171.968,-318 171.968,-312 171.968,-312 171.968,-300 171.968,-300 171.968,-294 177.968,-288 183.968,-288 183.968,-288 213.968,-288 213.968,-288 219.968,-288 225.968,-294 225.968,-300 225.968,-300 225.968,-312 225.968,-312 225.968,-318 219.968,-324 213.968,-324"/>
<text text-anchor="middle" x="198.968" y="-303" font-family="sans" font-size="10.00" fill="#000000">qc</text>
</g>
<!-- 2&#45;&gt;22 -->
<g id="edge63" class="edge">
<title>2-&gt;22</title>
<path fill="none" stroke="#c0c0c0" stroke-width="2" d="M178.7812,-359.8314C181.7324,-351.9617 185.2538,-342.5712 188.523,-333.8533"/>
<polygon fill="#c0c0c0" stroke="#c0c0c0" stroke-width="2" points="191.8289,-335.0055 192.063,-324.4133 185.2746,-332.5476 191.8289,-335.0055"/>
</g>
<!-- 3 -->
<g id="node4" class="node">
<title>3</title>
<path fill="none" stroke="#56a9d8" stroke-width="2" stroke-dasharray="5,2" d="M333.404,-396C333.404,-396 254.532,-396 254.532,-396 248.532,-396 242.532,-390 242.532,-384 242.532,-384 242.532,-372 242.532,-372 242.532,-366 248.532,-360 254.532,-360 254.532,-360 333.404,-360 333.404,-360 339.404,-360 345.404,-366 345.404,-372 345.404,-372 345.404,-384 345.404,-384 345.404,-390 339.404,-396 333.404,-396"/>
<text text-anchor="middle" x="293.968" y="-381" font-family="sans" font-size="10.00" fill="#000000">rename_file</text>
<text text-anchor="middle" x="293.968" y="-369" font-family="sans" font-size="10.00" fill="#000000">name: 12h_no_dox_3</text>
</g>
<!-- 3&#45;&gt;0 -->
<g id="edge3" class="edge">
<title>3-&gt;0</title>
<path fill="none" stroke="#c0c0c0" stroke-width="2" d="M285.485,-359.81C273.7434,-332.9218 253.968,-280.7039 253.968,-234 253.968,-234 253.968,-234 253.968,-162 253.968,-118.9187 254.815,-96.9051 289.968,-72 341.5475,-35.4572 1318.3549,-21.0679 1522.6889,-18.4515"/>
<polygon fill="#c0c0c0" stroke="#c0c0c0" stroke-width="2" points="1522.9506,-21.9486 1532.9055,-18.3223 1522.862,-14.9491 1522.9506,-21.9486"/>
</g>
<!-- 23 -->
<g id="node24" class="node">
<title>23</title>
<path fill="none" stroke="#56d8a9" stroke-width="2" stroke-dasharray="5,2" d="M323.968,-324C323.968,-324 293.968,-324 293.968,-324 287.968,-324 281.968,-318 281.968,-312 281.968,-312 281.968,-300 281.968,-300 281.968,-294 287.968,-288 293.968,-288 293.968,-288 323.968,-288 323.968,-288 329.968,-288 335.968,-294 335.968,-300 335.968,-300 335.968,-312 335.968,-312 335.968,-318 329.968,-324 323.968,-324"/>
<text text-anchor="middle" x="308.968" y="-303" font-family="sans" font-size="10.00" fill="#000000">qc</text>
</g>
<!-- 3&#45;&gt;23 -->
<g id="edge64" class="edge">
<title>3-&gt;23</title>
<path fill="none" stroke="#c0c0c0" stroke-width="2" d="M297.7531,-359.8314C299.3574,-352.131 301.265,-342.9743 303.0479,-334.4166"/>
<polygon fill="#c0c0c0" stroke="#c0c0c0" stroke-width="2" points="306.5187,-334.9169 305.1319,-324.4133 299.6659,-333.4892 306.5187,-334.9169"/>
</g>
<!-- 4 -->
<g id="node5" class="node">
<title>4</title>
<path fill="none" stroke="#56a9d8" stroke-width="2" stroke-dasharray="5,2" d="M456.404,-396C456.404,-396 377.532,-396 377.532,-396 371.532,-396 365.532,-390 365.532,-384 365.532,-384 365.532,-372 365.532,-372 365.532,-366 371.532,-360 377.532,-360 377.532,-360 456.404,-360 456.404,-360 462.404,-360 468.404,-366 468.404,-372 468.404,-372 468.404,-384 468.404,-384 468.404,-390 462.404,-396 456.404,-396"/>
<text text-anchor="middle" x="416.968" y="-381" font-family="sans" font-size="10.00" fill="#000000">rename_file</text>
<text text-anchor="middle" x="416.968" y="-369" font-family="sans" font-size="10.00" fill="#000000">name: 12h_no_dox_4</text>
</g>
<!-- 4&#45;&gt;0 -->
<g id="edge4" class="edge">
<title>4-&gt;0</title>
<path fill="none" stroke="#c0c0c0" stroke-width="2" d="M402.0755,-359.7103C394.8953,-349.7739 386.9852,-336.905 382.968,-324 349.4743,-216.4034 320.7004,-139.4583 410.968,-72 456.4972,-37.9753 1330.0032,-21.757 1522.6054,-18.5866"/>
<polygon fill="#c0c0c0" stroke="#c0c0c0" stroke-width="2" points="1522.8471,-22.0832 1532.7888,-18.4207 1522.7331,-15.0842 1522.8471,-22.0832"/>
</g>
<!-- 24 -->
<g id="node25" class="node">
<title>24</title>
<path fill="none" stroke="#56d8a9" stroke-width="2" stroke-dasharray="5,2" d="M433.968,-324C433.968,-324 403.968,-324 403.968,-324 397.968,-324 391.968,-318 391.968,-312 391.968,-312 391.968,-300 391.968,-300 391.968,-294 397.968,-288 403.968,-288 403.968,-288 433.968,-288 433.968,-288 439.968,-288 445.968,-294 445.968,-300 445.968,-300 445.968,-312 445.968,-312 445.968,-318 439.968,-324 433.968,-324"/>
<text text-anchor="middle" x="418.968" y="-303" font-family="sans" font-size="10.00" fill="#000000">qc</text>
</g>
<!-- 4&#45;&gt;24 -->
<g id="edge65" class="edge">
<title>4-&gt;24</title>
<path fill="none" stroke="#c0c0c0" stroke-width="2" d="M417.4727,-359.8314C417.6866,-352.131 417.9409,-342.9743 418.1786,-334.4166"/>
<polygon fill="#c0c0c0" stroke="#c0c0c0" stroke-width="2" points="421.6774,-334.5066 418.4565,-324.4133 414.6801,-334.3122 421.6774,-334.5066"/>
</g>
<!-- 5 -->
<g id="node6" class="node">
<title>5</title>
<path fill="none" stroke="#56a9d8" stroke-width="2" stroke-dasharray="5,2" d="M599.5728,-396C599.5728,-396 524.3632,-396 524.3632,-396 518.3632,-396 512.3632,-390 512.3632,-384 512.3632,-384 512.3632,-372 512.3632,-372 512.3632,-366 518.3632,-360 524.3632,-360 524.3632,-360 599.5728,-360 599.5728,-360 605.5728,-360 611.5728,-366 611.5728,-372 611.5728,-372 611.5728,-384 611.5728,-384 611.5728,-390 605.5728,-396 599.5728,-396"/>
<text text-anchor="middle" x="561.968" y="-381" font-family="sans" font-size="10.00" fill="#000000">rename_file</text>
<text text-anchor="middle" x="561.968" y="-369" font-family="sans" font-size="10.00" fill="#000000">name: 12h_is_dox_5</text>
</g>
<!-- 5&#45;&gt;0 -->
<g id="edge5" class="edge">
<title>5-&gt;0</title>
<path fill="none" stroke="#c0c0c0" stroke-width="2" d="M542.9071,-359.9596C518.1236,-334.4557 477.968,-285.2284 477.968,-234 477.968,-234 477.968,-234 477.968,-162 477.968,-112.3971 500.3326,-95.588 543.968,-72 631.3884,-24.7432 1350.2172,-18.8412 1522.8145,-18.1048"/>
<polygon fill="#c0c0c0" stroke="#c0c0c0" stroke-width="2" points="1522.9404,-21.6045 1532.9265,-18.0651 1522.9128,-14.6045 1522.9404,-21.6045"/>
</g>
<!-- 25 -->
<g id="node26" class="node">
<title>25</title>
<path fill="none" stroke="#56d8a9" stroke-width="2" stroke-dasharray="5,2" d="M602.968,-324C602.968,-324 572.968,-324 572.968,-324 566.968,-324 560.968,-318 560.968,-312 560.968,-312 560.968,-300 560.968,-300 560.968,-294 566.968,-288 572.968,-288 572.968,-288 602.968,-288 602.968,-288 608.968,-288 614.968,-294 614.968,-300 614.968,-300 614.968,-312 614.968,-312 614.968,-318 608.968,-324 602.968,-324"/>
<text text-anchor="middle" x="587.968" y="-303" font-family="sans" font-size="10.00" fill="#000000">qc</text>
</g>
<!-- 5&#45;&gt;25 -->
<g id="edge66" class="edge">
<title>5-&gt;25</title>
<path fill="none" stroke="#c0c0c0" stroke-width="2" d="M568.5289,-359.8314C571.3707,-351.9617 574.7617,-342.5712 577.9099,-333.8533"/>
<polygon fill="#c0c0c0" stroke="#c0c0c0" stroke-width="2" points="581.2142,-335.0076 581.3188,-324.4133 574.6303,-332.63 581.2142,-335.0076"/>
</g>
<!-- 6 -->
<g id="node7" class="node">
<title>6</title>
<path fill="none" stroke="#56a9d8" stroke-width="2" stroke-dasharray="5,2" d="M763.5728,-396C763.5728,-396 688.3632,-396 688.3632,-396 682.3632,-396 676.3632,-390 676.3632,-384 676.3632,-384 676.3632,-372 676.3632,-372 676.3632,-366 682.3632,-360 688.3632,-360 688.3632,-360 763.5728,-360 763.5728,-360 769.5728,-360 775.5728,-366 775.5728,-372 775.5728,-372 775.5728,-384 775.5728,-384 775.5728,-390 769.5728,-396 763.5728,-396"/>
<text text-anchor="middle" x="725.968" y="-381" font-family="sans" font-size="10.00" fill="#000000">rename_file</text>
<text text-anchor="middle" x="725.968" y="-369" font-family="sans" font-size="10.00" fill="#000000">name: 12h_is_dox_6</text>
</g>
<!-- 6&#45;&gt;0 -->
<g id="edge6" class="edge">
<title>6-&gt;0</title>
<path fill="none" stroke="#c0c0c0" stroke-width="2" d="M720.0299,-359.5823C711.8108,-332.4106 697.968,-279.8428 697.968,-234 697.968,-234 697.968,-234 697.968,-162 697.968,-111.0515 723.9073,-95.7758 768.968,-72 836.0712,-36.5936 1374.3263,-22.1199 1522.3902,-18.7853"/>
<polygon fill="#c0c0c0" stroke="#c0c0c0" stroke-width="2" points="1522.8395,-22.2763 1532.7595,-18.5557 1522.6845,-15.278 1522.8395,-22.2763"/>
</g>
<!-- 26 -->
<g id="node27" class="node">
<title>26</title>
<path fill="none" stroke="#56d8a9" stroke-width="2" stroke-dasharray="5,2" d="M767.968,-324C767.968,-324 737.968,-324 737.968,-324 731.968,-324 725.968,-318 725.968,-312 725.968,-312 725.968,-300 725.968,-300 725.968,-294 731.968,-288 737.968,-288 737.968,-288 767.968,-288 767.968,-288 773.968,-288 779.968,-294 779.968,-300 779.968,-300 779.968,-312 779.968,-312 779.968,-318 773.968,-324 767.968,-324"/>
<text text-anchor="middle" x="752.968" y="-303" font-family="sans" font-size="10.00" fill="#000000">qc</text>
</g>
<!-- 6&#45;&gt;26 -->
<g id="edge67" class="edge">
<title>6-&gt;26</title>
<path fill="none" stroke="#c0c0c0" stroke-width="2" d="M732.7812,-359.8314C735.7324,-351.9617 739.2538,-342.5712 742.523,-333.8533"/>
<polygon fill="#c0c0c0" stroke="#c0c0c0" stroke-width="2" points="745.8289,-335.0055 746.063,-324.4133 739.2746,-332.5476 745.8289,-335.0055"/>
</g>
<!-- 7 -->
<g id="node8" class="node">
<title>7</title>
<path fill="none" stroke="#56a9d8" stroke-width="2" stroke-dasharray="5,2" d="M940.404,-396C940.404,-396 861.532,-396 861.532,-396 855.532,-396 849.532,-390 849.532,-384 849.532,-384 849.532,-372 849.532,-372 849.532,-366 855.532,-360 861.532,-360 861.532,-360 940.404,-360 940.404,-360 946.404,-360 952.404,-366 952.404,-372 952.404,-372 952.404,-384 952.404,-384 952.404,-390 946.404,-396 940.404,-396"/>
<text text-anchor="middle" x="900.968" y="-381" font-family="sans" font-size="10.00" fill="#000000">rename_file</text>
<text text-anchor="middle" x="900.968" y="-369" font-family="sans" font-size="10.00" fill="#000000">name: 24h_no_dox_7</text>
</g>
<!-- 7&#45;&gt;0 -->
<g id="edge7" class="edge">
<title>7-&gt;0</title>
<path fill="none" stroke="#c0c0c0" stroke-width="2" d="M889.0338,-359.7554C872.8579,-333.2192 845.968,-281.903 845.968,-234 845.968,-234 845.968,-234 845.968,-162 845.968,-112.133 869.3756,-96.2161 912.968,-72 966.3388,-42.3519 1392.7956,-24.2093 1522.6067,-19.3333"/>
<polygon fill="#c0c0c0" stroke="#c0c0c0" stroke-width="2" points="1522.9732,-22.8222 1532.8364,-18.9536 1522.7134,-15.8271 1522.9732,-22.8222"/>
</g>
<!-- 27 -->
<g id="node28" class="node">
<title>27</title>
<path fill="none" stroke="#56d8a9" stroke-width="2" stroke-dasharray="5,2" d="M970.968,-324C970.968,-324 940.968,-324 940.968,-324 934.968,-324 928.968,-318 928.968,-312 928.968,-312 928.968,-300 928.968,-300 928.968,-294 934.968,-288 940.968,-288 940.968,-288 970.968,-288 970.968,-288 976.968,-288 982.968,-294 982.968,-300 982.968,-300 982.968,-312 982.968,-312 982.968,-318 976.968,-324 970.968,-324"/>
<text text-anchor="middle" x="955.968" y="-303" font-family="sans" font-size="10.00" fill="#000000">qc</text>
</g>
<!-- 7&#45;&gt;27 -->
<g id="edge68" class="edge">
<title>7-&gt;27</title>
<path fill="none" stroke="#c0c0c0" stroke-width="2" d="M914.8468,-359.8314C921.1816,-351.5386 928.8064,-341.557 935.7606,-332.4533"/>
<polygon fill="#c0c0c0" stroke="#c0c0c0" stroke-width="2" points="938.6132,-334.4847 941.9023,-324.4133 933.0505,-330.2353 938.6132,-334.4847"/>
</g>
<!-- 8 -->
<g id="node9" class="node">
<title>8</title>
<path fill="none" stroke="#56a9d8" stroke-width="2" stroke-dasharray="5,2" d="M1133.404,-396C1133.404,-396 1054.532,-396 1054.532,-396 1048.532,-396 1042.532,-390 1042.532,-384 1042.532,-384 1042.532,-372 1042.532,-372 1042.532,-366 1048.532,-360 1054.532,-360 1054.532,-360 1133.404,-360 1133.404,-360 1139.404,-360 1145.404,-366 1145.404,-372 1145.404,-372 1145.404,-384 1145.404,-384 1145.404,-390 1139.404,-396 1133.404,-396"/>
<text text-anchor="middle" x="1093.968" y="-381" font-family="sans" font-size="10.00" fill="#000000">rename_file</text>
<text text-anchor="middle" x="1093.968" y="-369" font-family="sans" font-size="10.00" fill="#000000">name: 24h_no_dox_8</text>
</g>
<!-- 8&#45;&gt;0 -->
<g id="edge8" class="edge">
<title>8-&gt;0</title>
<path fill="none" stroke="#c0c0c0" stroke-width="2" d="M1088.0299,-359.5823C1079.8108,-332.4106 1065.968,-279.8428 1065.968,-234 1065.968,-234 1065.968,-234 1065.968,-162 1065.968,-110.4962 1093.9792,-97.073 1138.968,-72 1204.5217,-35.4658 1432.2753,-22.8834 1522.6226,-19.2665"/>
<polygon fill="#c0c0c0" stroke="#c0c0c0" stroke-width="2" points="1522.8318,-22.7611 1532.6894,-18.8781 1522.5618,-15.7663 1522.8318,-22.7611"/>
</g>
<!-- 28 -->
<g id="node29" class="node">
<title>28</title>
<path fill="none" stroke="#56d8a9" stroke-width="2" stroke-dasharray="5,2" d="M1135.968,-324C1135.968,-324 1105.968,-324 1105.968,-324 1099.968,-324 1093.968,-318 1093.968,-312 1093.968,-312 1093.968,-300 1093.968,-300 1093.968,-294 1099.968,-288 1105.968,-288 1105.968,-288 1135.968,-288 1135.968,-288 1141.968,-288 1147.968,-294 1147.968,-300 1147.968,-300 1147.968,-312 1147.968,-312 1147.968,-318 1141.968,-324 1135.968,-324"/>
<text text-anchor="middle" x="1120.968" y="-303" font-family="sans" font-size="10.00" fill="#000000">qc</text>
</g>
<!-- 8&#45;&gt;28 -->
<g id="edge69" class="edge">
<title>8-&gt;28</title>
<path fill="none" stroke="#c0c0c0" stroke-width="2" d="M1100.7812,-359.8314C1103.7324,-351.9617 1107.2538,-342.5712 1110.523,-333.8533"/>
<polygon fill="#c0c0c0" stroke="#c0c0c0" stroke-width="2" points="1113.8289,-335.0055 1114.063,-324.4133 1107.2746,-332.5476 1113.8289,-335.0055"/>
</g>
<!-- 9 -->
<g id="node10" class="node">
<title>9</title>
<path fill="none" stroke="#56a9d8" stroke-width="2" stroke-dasharray="5,2" d="M1292.5728,-396C1292.5728,-396 1217.3632,-396 1217.3632,-396 1211.3632,-396 1205.3632,-390 1205.3632,-384 1205.3632,-384 1205.3632,-372 1205.3632,-372 1205.3632,-366 1211.3632,-360 1217.3632,-360 1217.3632,-360 1292.5728,-360 1292.5728,-360 1298.5728,-360 1304.5728,-366 1304.5728,-372 1304.5728,-372 1304.5728,-384 1304.5728,-384 1304.5728,-390 1298.5728,-396 1292.5728,-396"/>
<text text-anchor="middle" x="1254.968" y="-381" font-family="sans" font-size="10.00" fill="#000000">rename_file</text>
<text text-anchor="middle" x="1254.968" y="-369" font-family="sans" font-size="10.00" fill="#000000">name: 24h_is_dox_9</text>
</g>
<!-- 9&#45;&gt;0 -->
<g id="edge9" class="edge">
<title>9-&gt;0</title>
<path fill="none" stroke="#c0c0c0" stroke-width="2" d="M1246.273,-359.8324C1234.2378,-332.9721 1213.968,-280.7885 1213.968,-234 1213.968,-234 1213.968,-234 1213.968,-162 1213.968,-111.5972 1240.1206,-98.5433 1282.968,-72 1322.7017,-47.3856 1457.0691,-29.4664 1522.942,-21.9348"/>
<polygon fill="#c0c0c0" stroke="#c0c0c0" stroke-width="2" points="1523.3545,-25.4106 1532.9011,-20.8158 1522.5728,-18.4544 1523.3545,-25.4106"/>
</g>
<!-- 29 -->
<g id="node30" class="node">
<title>29</title>
<path fill="none" stroke="#56d8a9" stroke-width="2" stroke-dasharray="5,2" d="M1338.968,-324C1338.968,-324 1308.968,-324 1308.968,-324 1302.968,-324 1296.968,-318 1296.968,-312 1296.968,-312 1296.968,-300 1296.968,-300 1296.968,-294 1302.968,-288 1308.968,-288 1308.968,-288 1338.968,-288 1338.968,-288 1344.968,-288 1350.968,-294 1350.968,-300 1350.968,-300 1350.968,-312 1350.968,-312 1350.968,-318 1344.968,-324 1338.968,-324"/>
<text text-anchor="middle" x="1323.968" y="-303" font-family="sans" font-size="10.00" fill="#000000">qc</text>
</g>
<!-- 9&#45;&gt;29 -->
<g id="edge70" class="edge">
<title>9-&gt;29</title>
<path fill="none" stroke="#c0c0c0" stroke-width="2" d="M1272.3796,-359.8314C1280.489,-351.3694 1290.2836,-341.1489 1299.15,-331.8971"/>
<polygon fill="#c0c0c0" stroke="#c0c0c0" stroke-width="2" points="1301.9298,-334.0549 1306.322,-324.4133 1296.8759,-329.2115 1301.9298,-334.0549"/>
</g>
<!-- 10 -->
<g id="node11" class="node">
<title>10</title>
<path fill="none" stroke="#56a9d8" stroke-width="2" stroke-dasharray="5,2" d="M1502.0727,-396C1502.0727,-396 1421.8633,-396 1421.8633,-396 1415.8633,-396 1409.8633,-390 1409.8633,-384 1409.8633,-384 1409.8633,-372 1409.8633,-372 1409.8633,-366 1415.8633,-360 1421.8633,-360 1421.8633,-360 1502.0727,-360 1502.0727,-360 1508.0727,-360 1514.0727,-366 1514.0727,-372 1514.0727,-372 1514.0727,-384 1514.0727,-384 1514.0727,-390 1508.0727,-396 1502.0727,-396"/>
<text text-anchor="middle" x="1461.968" y="-381" font-family="sans" font-size="10.00" fill="#000000">rename_file</text>
<text text-anchor="middle" x="1461.968" y="-369" font-family="sans" font-size="10.00" fill="#000000">name: 24h_is_dox_10</text>
</g>
<!-- 10&#45;&gt;0 -->
<g id="edge10" class="edge">
<title>10-&gt;0</title>
<path fill="none" stroke="#c0c0c0" stroke-width="2" d="M1458.1267,-359.6001C1456.1514,-349.2025 1453.9557,-335.9346 1452.968,-324 1451.6483,-308.0545 1451.3985,-303.9228 1452.968,-288 1462.5699,-190.5883 1446.2125,-156.2949 1495.968,-72 1503.0933,-59.9284 1513.9304,-49.2897 1524.6725,-40.7169"/>
<polygon fill="#c0c0c0" stroke="#c0c0c0" stroke-width="2" points="1526.9349,-43.3943 1532.8053,-34.5745 1522.7161,-37.8084 1526.9349,-43.3943"/>
</g>
<!-- 30 -->
<g id="node31" class="node">
<title>30</title>
<path fill="none" stroke="#56d8a9" stroke-width="2" stroke-dasharray="5,2" d="M1503.968,-324C1503.968,-324 1473.968,-324 1473.968,-324 1467.968,-324 1461.968,-318 1461.968,-312 1461.968,-312 1461.968,-300 1461.968,-300 1461.968,-294 1467.968,-288 1473.968,-288 1473.968,-288 1503.968,-288 1503.968,-288 1509.968,-288 1515.968,-294 1515.968,-300 1515.968,-300 1515.968,-312 1515.968,-312 1515.968,-318 1509.968,-324 1503.968,-324"/>
<text text-anchor="middle" x="1488.968" y="-303" font-family="sans" font-size="10.00" fill="#000000">qc</text>
</g>
<!-- 10&#45;&gt;30 -->
<g id="edge71" class="edge">
<title>10-&gt;30</title>
<path fill="none" stroke="#c0c0c0" stroke-width="2" d="M1468.7812,-359.8314C1471.7324,-351.9617 1475.2538,-342.5712 1478.523,-333.8533"/>
<polygon fill="#c0c0c0" stroke="#c0c0c0" stroke-width="2" points="1481.8289,-335.0055 1482.063,-324.4133 1475.2746,-332.5476 1481.8289,-335.0055"/>
</g>
<!-- 11 -->
<g id="node12" class="node">
<title>11</title>
<path fill="none" stroke="#56a9d8" stroke-width="2" stroke-dasharray="5,2" d="M1704.404,-396C1704.404,-396 1625.532,-396 1625.532,-396 1619.532,-396 1613.532,-390 1613.532,-384 1613.532,-384 1613.532,-372 1613.532,-372 1613.532,-366 1619.532,-360 1625.532,-360 1625.532,-360 1704.404,-360 1704.404,-360 1710.404,-360 1716.404,-366 1716.404,-372 1716.404,-372 1716.404,-384 1716.404,-384 1716.404,-390 1710.404,-396 1704.404,-396"/>
<text text-anchor="middle" x="1664.968" y="-381" font-family="sans" font-size="10.00" fill="#000000">rename_file</text>
<text text-anchor="middle" x="1664.968" y="-369" font-family="sans" font-size="10.00" fill="#000000">name: 0h_no_dox_11</text>
</g>
<!-- 11&#45;&gt;0 -->
<g id="edge11" class="edge">
<title>11-&gt;0</title>
<path fill="none" stroke="#c0c0c0" stroke-width="2" d="M1668.878,-359.8152C1678.6952,-309.1506 1699.3615,-164.0804 1636.968,-72 1626.7285,-56.8885 1610.7474,-44.6771 1595.9924,-35.7148"/>
<polygon fill="#c0c0c0" stroke="#c0c0c0" stroke-width="2" points="1597.4394,-32.5095 1587.026,-30.5574 1593.9493,-38.5773 1597.4394,-32.5095"/>
</g>
<!-- 31 -->
<g id="node32" class="node">
<title>31</title>
<path fill="none" stroke="#56d8a9" stroke-width="2" stroke-dasharray="5,2" d="M1651.968,-324C1651.968,-324 1621.968,-324 1621.968,-324 1615.968,-324 1609.968,-318 1609.968,-312 1609.968,-312 1609.968,-300 1609.968,-300 1609.968,-294 1615.968,-288 1621.968,-288 1621.968,-288 1651.968,-288 1651.968,-288 1657.968,-288 1663.968,-294 1663.968,-300 1663.968,-300 1663.968,-312 1663.968,-312 1663.968,-318 1657.968,-324 1651.968,-324"/>
<text text-anchor="middle" x="1636.968" y="-303" font-family="sans" font-size="10.00" fill="#000000">qc</text>
</g>
<!-- 11&#45;&gt;31 -->
<g id="edge72" class="edge">
<title>11-&gt;31</title>
<path fill="none" stroke="#c0c0c0" stroke-width="2" d="M1657.9024,-359.8314C1654.842,-351.9617 1651.1901,-342.5712 1647.7998,-333.8533"/>
<polygon fill="#c0c0c0" stroke="#c0c0c0" stroke-width="2" points="1651.0153,-332.4647 1644.1287,-324.4133 1644.4912,-335.0019 1651.0153,-332.4647"/>
</g>
<!-- 12 -->
<g id="node13" class="node">
<title>12</title>
<path fill="none" stroke="#56a9d8" stroke-width="2" stroke-dasharray="5,2" d="M1874.404,-396C1874.404,-396 1795.532,-396 1795.532,-396 1789.532,-396 1783.532,-390 1783.532,-384 1783.532,-384 1783.532,-372 1783.532,-372 1783.532,-366 1789.532,-360 1795.532,-360 1795.532,-360 1874.404,-360 1874.404,-360 1880.404,-360 1886.404,-366 1886.404,-372 1886.404,-372 1886.404,-384 1886.404,-384 1886.404,-390 1880.404,-396 1874.404,-396"/>
<text text-anchor="middle" x="1834.968" y="-381" font-family="sans" font-size="10.00" fill="#000000">rename_file</text>
<text text-anchor="middle" x="1834.968" y="-369" font-family="sans" font-size="10.00" fill="#000000">name: 0h_no_dox_12</text>
</g>
<!-- 12&#45;&gt;0 -->
<g id="edge12" class="edge">
<title>12-&gt;0</title>
<path fill="none" stroke="#c0c0c0" stroke-width="2" d="M1852.4405,-359.6598C1875.1587,-333.808 1911.968,-284.179 1911.968,-234 1911.968,-234 1911.968,-234 1911.968,-162 1911.968,-111.3255 1885.1831,-98.4643 1841.968,-72 1801.3139,-47.1041 1663.9912,-29.2659 1597.1435,-21.8365"/>
<polygon fill="#c0c0c0" stroke="#c0c0c0" stroke-width="2" points="1597.3664,-18.3401 1587.0455,-20.734 1596.6066,-25.2988 1597.3664,-18.3401"/>
</g>
<!-- 32 -->
<g id="node33" class="node">
<title>32</title>
<path fill="none" stroke="#56d8a9" stroke-width="2" stroke-dasharray="5,2" d="M1816.968,-324C1816.968,-324 1786.968,-324 1786.968,-324 1780.968,-324 1774.968,-318 1774.968,-312 1774.968,-312 1774.968,-300 1774.968,-300 1774.968,-294 1780.968,-288 1786.968,-288 1786.968,-288 1816.968,-288 1816.968,-288 1822.968,-288 1828.968,-294 1828.968,-300 1828.968,-300 1828.968,-312 1828.968,-312 1828.968,-318 1822.968,-324 1816.968,-324"/>
<text text-anchor="middle" x="1801.968" y="-303" font-family="sans" font-size="10.00" fill="#000000">qc</text>
</g>
<!-- 12&#45;&gt;32 -->
<g id="edge73" class="edge">
<title>12-&gt;32</title>
<path fill="none" stroke="#c0c0c0" stroke-width="2" d="M1826.6407,-359.8314C1822.995,-351.8771 1818.6371,-342.369 1814.6053,-333.5723"/>
<polygon fill="#c0c0c0" stroke="#c0c0c0" stroke-width="2" points="1817.7557,-332.0456 1810.4074,-324.4133 1811.3923,-334.9622 1817.7557,-332.0456"/>
</g>
<!-- 13 -->
<g id="node14" class="node">
<title>13</title>
<path fill="none" stroke="#56a9d8" stroke-width="2" stroke-dasharray="5,2" d="M2079.0727,-396C2079.0727,-396 1998.8633,-396 1998.8633,-396 1992.8633,-396 1986.8633,-390 1986.8633,-384 1986.8633,-384 1986.8633,-372 1986.8633,-372 1986.8633,-366 1992.8633,-360 1998.8633,-360 1998.8633,-360 2079.0727,-360 2079.0727,-360 2085.0727,-360 2091.0727,-366 2091.0727,-372 2091.0727,-372 2091.0727,-384 2091.0727,-384 2091.0727,-390 2085.0727,-396 2079.0727,-396"/>
<text text-anchor="middle" x="2038.968" y="-381" font-family="sans" font-size="10.00" fill="#000000">rename_file</text>
<text text-anchor="middle" x="2038.968" y="-369" font-family="sans" font-size="10.00" fill="#000000">name: 24h_is_dox_13</text>
</g>
<!-- 13&#45;&gt;0 -->
<g id="edge13" class="edge">
<title>13-&gt;0</title>
<path fill="none" stroke="#c0c0c0" stroke-width="2" d="M2043.3192,-359.9379C2049.4702,-332.7787 2059.968,-279.7286 2059.968,-234 2059.968,-234 2059.968,-234 2059.968,-162 2059.968,-111.5972 2034.6916,-97.0738 1990.968,-72 1924.1085,-33.6587 1689.2371,-22.1183 1597.2826,-19.024"/>
<polygon fill="#c0c0c0" stroke="#c0c0c0" stroke-width="2" points="1597.1588,-15.5183 1587.0515,-18.695 1596.9338,-22.5146 1597.1588,-15.5183"/>
</g>
<!-- 33 -->
<g id="node34" class="node">
<title>33</title>
<path fill="none" stroke="#56d8a9" stroke-width="2" stroke-dasharray="5,2" d="M1981.968,-324C1981.968,-324 1951.968,-324 1951.968,-324 1945.968,-324 1939.968,-318 1939.968,-312 1939.968,-312 1939.968,-300 1939.968,-300 1939.968,-294 1945.968,-288 1951.968,-288 1951.968,-288 1981.968,-288 1981.968,-288 1987.968,-288 1993.968,-294 1993.968,-300 1993.968,-300 1993.968,-312 1993.968,-312 1993.968,-318 1987.968,-324 1981.968,-324"/>
<text text-anchor="middle" x="1966.968" y="-303" font-family="sans" font-size="10.00" fill="#000000">qc</text>
</g>
<!-- 13&#45;&gt;33 -->
<g id="edge74" class="edge">
<title>13-&gt;33</title>
<path fill="none" stroke="#c0c0c0" stroke-width="2" d="M2020.7994,-359.8314C2012.2528,-351.2848 2001.9123,-340.9443 1992.5878,-331.6198"/>
<polygon fill="#c0c0c0" stroke="#c0c0c0" stroke-width="2" points="1994.9272,-329.0095 1985.3813,-324.4133 1989.9775,-333.9592 1994.9272,-329.0095"/>
</g>
<!-- 14 -->
<g id="node15" class="node">
<title>14</title>
<path fill="none" stroke="#56a9d8" stroke-width="2" stroke-dasharray="5,2" d="M2214.0727,-396C2214.0727,-396 2133.8633,-396 2133.8633,-396 2127.8633,-396 2121.8633,-390 2121.8633,-384 2121.8633,-384 2121.8633,-372 2121.8633,-372 2121.8633,-366 2127.8633,-360 2133.8633,-360 2133.8633,-360 2214.0727,-360 2214.0727,-360 2220.0727,-360 2226.0727,-366 2226.0727,-372 2226.0727,-372 2226.0727,-384 2226.0727,-384 2226.0727,-390 2220.0727,-396 2214.0727,-396"/>
<text text-anchor="middle" x="2173.968" y="-381" font-family="sans" font-size="10.00" fill="#000000">rename_file</text>
<text text-anchor="middle" x="2173.968" y="-369" font-family="sans" font-size="10.00" fill="#000000">name: 24h_is_dox_14</text>
</g>
<!-- 14&#45;&gt;0 -->
<g id="edge14" class="edge">
<title>14-&gt;0</title>
<path fill="none" stroke="#c0c0c0" stroke-width="2" d="M2181.1785,-359.6867C2191.1589,-332.6448 2207.968,-280.2373 2207.968,-234 2207.968,-234 2207.968,-234 2207.968,-162 2207.968,-109.0682 2177.0258,-96.2351 2129.968,-72 2082.6809,-47.6469 1716.0065,-26.2679 1597.0765,-19.9138"/>
<polygon fill="#c0c0c0" stroke="#c0c0c0" stroke-width="2" points="1597.1721,-16.4141 1587.0008,-19.3799 1596.8016,-23.4043 1597.1721,-16.4141"/>
</g>
<!-- 34 -->
<g id="node35" class="node">
<title>34</title>
<path fill="none" stroke="#56d8a9" stroke-width="2" stroke-dasharray="5,2" d="M2167.968,-324C2167.968,-324 2137.968,-324 2137.968,-324 2131.968,-324 2125.968,-318 2125.968,-312 2125.968,-312 2125.968,-300 2125.968,-300 2125.968,-294 2131.968,-288 2137.968,-288 2137.968,-288 2167.968,-288 2167.968,-288 2173.968,-288 2179.968,-294 2179.968,-300 2179.968,-300 2179.968,-312 2179.968,-312 2179.968,-318 2173.968,-324 2167.968,-324"/>
<text text-anchor="middle" x="2152.968" y="-303" font-family="sans" font-size="10.00" fill="#000000">qc</text>
</g>
<!-- 14&#45;&gt;34 -->
<g id="edge75" class="edge">
<title>14-&gt;34</title>
<path fill="none" stroke="#c0c0c0" stroke-width="2" d="M2168.6688,-359.8314C2166.3982,-352.0463 2163.6934,-342.7729 2161.174,-334.1347"/>
<polygon fill="#c0c0c0" stroke="#c0c0c0" stroke-width="2" points="2164.4986,-333.0332 2158.3385,-324.4133 2157.7786,-334.9933 2164.4986,-333.0332"/>
</g>
<!-- 15 -->
<g id="node16" class="node">
<title>15</title>
<path fill="none" stroke="#56a9d8" stroke-width="2" stroke-dasharray="5,2" d="M2375.904,-396C2375.904,-396 2292.032,-396 2292.032,-396 2286.032,-396 2280.032,-390 2280.032,-384 2280.032,-384 2280.032,-372 2280.032,-372 2280.032,-366 2286.032,-360 2292.032,-360 2292.032,-360 2375.904,-360 2375.904,-360 2381.904,-360 2387.904,-366 2387.904,-372 2387.904,-372 2387.904,-384 2387.904,-384 2387.904,-390 2381.904,-396 2375.904,-396"/>
<text text-anchor="middle" x="2333.968" y="-381" font-family="sans" font-size="10.00" fill="#000000">rename_file</text>
<text text-anchor="middle" x="2333.968" y="-369" font-family="sans" font-size="10.00" fill="#000000">name: 24h_no_dox_15</text>
</g>
<!-- 15&#45;&gt;0 -->
<g id="edge15" class="edge">
<title>15-&gt;0</title>
<path fill="none" stroke="#c0c0c0" stroke-width="2" d="M2349.1424,-359.8411C2367.4902,-336.5838 2397.3541,-294.2177 2408.968,-252 2430.9596,-172.0585 2426.485,-121.495 2359.968,-72 2298.2797,-26.098 1747.1556,-19.2052 1597.3871,-18.1782"/>
<polygon fill="#c0c0c0" stroke="#c0c0c0" stroke-width="2" points="1597.3317,-14.6779 1587.3096,-18.114 1597.287,-21.6778 1597.3317,-14.6779"/>
</g>
<!-- 35 -->
<g id="node36" class="node">
<title>35</title>
<path fill="none" stroke="#56d8a9" stroke-width="2" stroke-dasharray="5,2" d="M2332.968,-324C2332.968,-324 2302.968,-324 2302.968,-324 2296.968,-324 2290.968,-318 2290.968,-312 2290.968,-312 2290.968,-300 2290.968,-300 2290.968,-294 2296.968,-288 2302.968,-288 2302.968,-288 2332.968,-288 2332.968,-288 2338.968,-288 2344.968,-294 2344.968,-300 2344.968,-300 2344.968,-312 2344.968,-312 2344.968,-318 2338.968,-324 2332.968,-324"/>
<text text-anchor="middle" x="2317.968" y="-303" font-family="sans" font-size="10.00" fill="#000000">qc</text>
</g>
<!-- 15&#45;&gt;35 -->
<g id="edge76" class="edge">
<title>15-&gt;35</title>
<path fill="none" stroke="#c0c0c0" stroke-width="2" d="M2329.9305,-359.8314C2328.2193,-352.131 2326.1845,-342.9743 2324.2828,-334.4166"/>
<polygon fill="#c0c0c0" stroke="#c0c0c0" stroke-width="2" points="2327.6459,-333.4159 2322.0598,-324.4133 2320.8126,-334.9344 2327.6459,-333.4159"/>
</g>
<!-- 16 -->
<g id="node17" class="node">
<title>16</title>
<path fill="none" stroke="#56a9d8" stroke-width="2" stroke-dasharray="5,2" d="M2530.904,-396C2530.904,-396 2447.032,-396 2447.032,-396 2441.032,-396 2435.032,-390 2435.032,-384 2435.032,-384 2435.032,-372 2435.032,-372 2435.032,-366 2441.032,-360 2447.032,-360 2447.032,-360 2530.904,-360 2530.904,-360 2536.904,-360 2542.904,-366 2542.904,-372 2542.904,-372 2542.904,-384 2542.904,-384 2542.904,-390 2536.904,-396 2530.904,-396"/>
<text text-anchor="middle" x="2488.968" y="-381" font-family="sans" font-size="10.00" fill="#000000">rename_file</text>
<text text-anchor="middle" x="2488.968" y="-369" font-family="sans" font-size="10.00" fill="#000000">name: 24h_no_dox_16</text>
</g>
<!-- 16&#45;&gt;0 -->
<g id="edge16" class="edge">
<title>16-&gt;0</title>
<path fill="none" stroke="#c0c0c0" stroke-width="2" d="M2492.076,-359.8777C2496.4696,-332.6417 2503.968,-279.4948 2503.968,-234 2503.968,-234 2503.968,-234 2503.968,-162 2503.968,-118.9187 2502.9093,-97.2014 2467.968,-72 2432.1321,-46.1534 1764.7965,-24.2221 1597.6704,-19.1191"/>
<polygon fill="#c0c0c0" stroke="#c0c0c0" stroke-width="2" points="1597.499,-15.6124 1587.3974,-18.8074 1597.2867,-22.6092 1597.499,-15.6124"/>
</g>
<!-- 36 -->
<g id="node37" class="node">
<title>36</title>
<path fill="none" stroke="#56d8a9" stroke-width="2" stroke-dasharray="5,2" d="M2463.968,-324C2463.968,-324 2433.968,-324 2433.968,-324 2427.968,-324 2421.968,-318 2421.968,-312 2421.968,-312 2421.968,-300 2421.968,-300 2421.968,-294 2427.968,-288 2433.968,-288 2433.968,-288 2463.968,-288 2463.968,-288 2469.968,-288 2475.968,-294 2475.968,-300 2475.968,-300 2475.968,-312 2475.968,-312 2475.968,-318 2469.968,-324 2463.968,-324"/>
<text text-anchor="middle" x="2448.968" y="-303" font-family="sans" font-size="10.00" fill="#000000">qc</text>
</g>
<!-- 16&#45;&gt;36 -->
<g id="edge77" class="edge">
<title>16-&gt;36</title>
<path fill="none" stroke="#c0c0c0" stroke-width="2" d="M2478.8743,-359.8314C2474.4083,-351.7925 2469.0605,-342.1666 2464.1301,-333.2918"/>
<polygon fill="#c0c0c0" stroke="#c0c0c0" stroke-width="2" points="2467.1136,-331.4551 2459.1976,-324.4133 2460.9945,-334.8546 2467.1136,-331.4551"/>
</g>
<!-- 17 -->
<g id="node18" class="node">
<title>17</title>
<path fill="none" stroke="#56a9d8" stroke-width="2" stroke-dasharray="5,2" d="M2654.0727,-396C2654.0727,-396 2573.8633,-396 2573.8633,-396 2567.8633,-396 2561.8633,-390 2561.8633,-384 2561.8633,-384 2561.8633,-372 2561.8633,-372 2561.8633,-366 2567.8633,-360 2573.8633,-360 2573.8633,-360 2654.0727,-360 2654.0727,-360 2660.0727,-360 2666.0727,-366 2666.0727,-372 2666.0727,-372 2666.0727,-384 2666.0727,-384 2666.0727,-390 2660.0727,-396 2654.0727,-396"/>
<text text-anchor="middle" x="2613.968" y="-381" font-family="sans" font-size="10.00" fill="#000000">rename_file</text>
<text text-anchor="middle" x="2613.968" y="-369" font-family="sans" font-size="10.00" fill="#000000">name: 24h_is_dox_17</text>
</g>
<!-- 17&#45;&gt;0 -->
<g id="edge17" class="edge">
<title>17-&gt;0</title>
<path fill="none" stroke="#c0c0c0" stroke-width="2" d="M2622.0268,-359.7668C2633.1814,-332.8248 2651.968,-280.5405 2651.968,-234 2651.968,-234 2651.968,-234 2651.968,-162 2651.968,-109.646 2622.8492,-95.3043 2575.968,-72 2487.0772,-27.8131 1770.9008,-19.59 1597.617,-18.2418"/>
<polygon fill="#c0c0c0" stroke="#c0c0c0" stroke-width="2" points="1597.4834,-14.7408 1587.4575,-18.1659 1597.431,-21.7406 1597.4834,-14.7408"/>
</g>
<!-- 37 -->
<g id="node38" class="node">
<title>37</title>
<path fill="none" stroke="#56d8a9" stroke-width="2" stroke-dasharray="5,2" d="M2611.968,-324C2611.968,-324 2581.968,-324 2581.968,-324 2575.968,-324 2569.968,-318 2569.968,-312 2569.968,-312 2569.968,-300 2569.968,-300 2569.968,-294 2575.968,-288 2581.968,-288 2581.968,-288 2611.968,-288 2611.968,-288 2617.968,-288 2623.968,-294 2623.968,-300 2623.968,-300 2623.968,-312 2623.968,-312 2623.968,-318 2617.968,-324 2611.968,-324"/>
<text text-anchor="middle" x="2596.968" y="-303" font-family="sans" font-size="10.00" fill="#000000">qc</text>
</g>
<!-- 17&#45;&gt;37 -->
<g id="edge78" class="edge">
<title>17-&gt;37</title>
<path fill="none" stroke="#c0c0c0" stroke-width="2" d="M2609.6782,-359.8314C2607.86,-352.131 2605.6981,-342.9743 2603.6775,-334.4166"/>
<polygon fill="#c0c0c0" stroke="#c0c0c0" stroke-width="2" points="2607.0199,-333.3414 2601.3156,-324.4133 2600.2072,-334.95 2607.0199,-333.3414"/>
</g>
<!-- 18 -->
<g id="node19" class="node">
<title>18</title>
<path fill="none" stroke="#56a9d8" stroke-width="2" stroke-dasharray="5,2" d="M2777.0727,-396C2777.0727,-396 2696.8633,-396 2696.8633,-396 2690.8633,-396 2684.8633,-390 2684.8633,-384 2684.8633,-384 2684.8633,-372 2684.8633,-372 2684.8633,-366 2690.8633,-360 2696.8633,-360 2696.8633,-360 2777.0727,-360 2777.0727,-360 2783.0727,-360 2789.0727,-366 2789.0727,-372 2789.0727,-372 2789.0727,-384 2789.0727,-384 2789.0727,-390 2783.0727,-396 2777.0727,-396"/>
<text text-anchor="middle" x="2736.968" y="-381" font-family="sans" font-size="10.00" fill="#000000">rename_file</text>
<text text-anchor="middle" x="2736.968" y="-369" font-family="sans" font-size="10.00" fill="#000000">name: 24h_is_dox_18</text>
</g>
<!-- 18&#45;&gt;0 -->
<g id="edge18" class="edge">
<title>18-&gt;0</title>
<path fill="none" stroke="#c0c0c0" stroke-width="2" d="M2745.5444,-359.7337C2756.3228,-335.6731 2774.2273,-291.749 2780.968,-252 2794.8303,-170.2558 2799.0097,-120.782 2731.968,-72 2685.017,-37.8367 1791.6307,-21.6874 1597.1395,-18.5687"/>
<polygon fill="#c0c0c0" stroke="#c0c0c0" stroke-width="2" points="1597.1779,-15.0689 1587.1236,-18.4097 1597.0668,-22.0681 1597.1779,-15.0689"/>
</g>
<!-- 38 -->
<g id="node39" class="node">
<title>38</title>
<path fill="none" stroke="#56d8a9" stroke-width="2" stroke-dasharray="5,2" d="M2721.968,-324C2721.968,-324 2691.968,-324 2691.968,-324 2685.968,-324 2679.968,-318 2679.968,-312 2679.968,-312 2679.968,-300 2679.968,-300 2679.968,-294 2685.968,-288 2691.968,-288 2691.968,-288 2721.968,-288 2721.968,-288 2727.968,-288 2733.968,-294 2733.968,-300 2733.968,-300 2733.968,-312 2733.968,-312 2733.968,-318 2727.968,-324 2721.968,-324"/>
<text text-anchor="middle" x="2706.968" y="-303" font-family="sans" font-size="10.00" fill="#000000">qc</text>
</g>
<!-- 18&#45;&gt;38 -->
<g id="edge79" class="edge">
<title>18-&gt;38</title>
<path fill="none" stroke="#c0c0c0" stroke-width="2" d="M2729.3977,-359.8314C2726.1187,-351.9617 2722.206,-342.5712 2718.5735,-333.8533"/>
<polygon fill="#c0c0c0" stroke="#c0c0c0" stroke-width="2" points="2721.7172,-332.2979 2714.6402,-324.4133 2715.2556,-334.9902 2721.7172,-332.2979"/>
</g>
<!-- 19 -->
<g id="node20" class="node">
<title>19</title>
<path fill="none" stroke="#56a9d8" stroke-width="2" stroke-dasharray="5,2" d="M2900.0727,-396C2900.0727,-396 2819.8633,-396 2819.8633,-396 2813.8633,-396 2807.8633,-390 2807.8633,-384 2807.8633,-384 2807.8633,-372 2807.8633,-372 2807.8633,-366 2813.8633,-360 2819.8633,-360 2819.8633,-360 2900.0727,-360 2900.0727,-360 2906.0727,-360 2912.0727,-366 2912.0727,-372 2912.0727,-372 2912.0727,-384 2912.0727,-384 2912.0727,-390 2906.0727,-396 2900.0727,-396"/>
<text text-anchor="middle" x="2859.968" y="-381" font-family="sans" font-size="10.00" fill="#000000">rename_file</text>
<text text-anchor="middle" x="2859.968" y="-369" font-family="sans" font-size="10.00" fill="#000000">name: 24h_is_dox_19</text>
</g>
<!-- 19&#45;&gt;0 -->
<g id="edge19" class="edge">
<title>19-&gt;0</title>
<path fill="none" stroke="#c0c0c0" stroke-width="2" d="M2863.2832,-359.8863C2867.9697,-332.6615 2875.968,-279.5285 2875.968,-234 2875.968,-234 2875.968,-234 2875.968,-162 2875.968,-118.9187 2875.1252,-96.8993 2839.968,-72 2787.977,-35.1786 1803.4824,-21.0095 1597.5404,-18.4423"/>
<polygon fill="#c0c0c0" stroke="#c0c0c0" stroke-width="2" points="1597.2858,-14.939 1587.2435,-18.3156 1597.1996,-21.9385 1597.2858,-14.939"/>
</g>
<!-- 39 -->
<g id="node40" class="node">
<title>39</title>
<path fill="none" stroke="#56d8a9" stroke-width="2" stroke-dasharray="5,2" d="M2835.968,-324C2835.968,-324 2805.968,-324 2805.968,-324 2799.968,-324 2793.968,-318 2793.968,-312 2793.968,-312 2793.968,-300 2793.968,-300 2793.968,-294 2799.968,-288 2805.968,-288 2805.968,-288 2835.968,-288 2835.968,-288 2841.968,-288 2847.968,-294 2847.968,-300 2847.968,-300 2847.968,-312 2847.968,-312 2847.968,-318 2841.968,-324 2835.968,-324"/>
<text text-anchor="middle" x="2820.968" y="-303" font-family="sans" font-size="10.00" fill="#000000">qc</text>
</g>
<!-- 19&#45;&gt;39 -->
<g id="edge80" class="edge">
<title>19-&gt;39</title>
<path fill="none" stroke="#c0c0c0" stroke-width="2" d="M2850.1267,-359.8314C2845.7723,-351.7925 2840.5582,-342.1666 2835.7511,-333.2918"/>
<polygon fill="#c0c0c0" stroke="#c0c0c0" stroke-width="2" points="2838.7823,-331.5392 2830.9419,-324.4133 2832.6272,-334.8732 2838.7823,-331.5392"/>
</g>
<!-- 20 -->
<g id="node21" class="node">
<title>20</title>
<path fill="none" stroke="#56a9d8" stroke-width="2" stroke-dasharray="5,2" d="M3036.0727,-396C3036.0727,-396 2955.8633,-396 2955.8633,-396 2949.8633,-396 2943.8633,-390 2943.8633,-384 2943.8633,-384 2943.8633,-372 2943.8633,-372 2943.8633,-366 2949.8633,-360 2955.8633,-360 2955.8633,-360 3036.0727,-360 3036.0727,-360 3042.0727,-360 3048.0727,-366 3048.0727,-372 3048.0727,-372 3048.0727,-384 3048.0727,-384 3048.0727,-390 3042.0727,-396 3036.0727,-396"/>
<text text-anchor="middle" x="2995.968" y="-381" font-family="sans" font-size="10.00" fill="#000000">rename_file</text>
<text text-anchor="middle" x="2995.968" y="-369" font-family="sans" font-size="10.00" fill="#000000">name: 24h_is_dox_20</text>
</g>
<!-- 20&#45;&gt;0 -->
<g id="edge20" class="edge">
<title>20-&gt;0</title>
<path fill="none" stroke="#c0c0c0" stroke-width="2" d="M3001.9061,-359.5823C3010.1252,-332.4106 3023.968,-279.8428 3023.968,-234 3023.968,-234 3023.968,-234 3023.968,-162 3023.968,-109.9317 2995.6826,-94.9969 2948.968,-72 2886.6224,-41.3081 1811.77,-22.1271 1597.098,-18.5929"/>
<polygon fill="#c0c0c0" stroke="#c0c0c0" stroke-width="2" points="1597.0262,-15.0913 1586.9703,-18.4273 1596.9117,-22.0904 1597.0262,-15.0913"/>
</g>
<!-- 40 -->
<g id="node41" class="node">
<title>40</title>
<path fill="none" stroke="#56d8a9" stroke-width="2" stroke-dasharray="5,2" d="M2983.968,-324C2983.968,-324 2953.968,-324 2953.968,-324 2947.968,-324 2941.968,-318 2941.968,-312 2941.968,-312 2941.968,-300 2941.968,-300 2941.968,-294 2947.968,-288 2953.968,-288 2953.968,-288 2983.968,-288 2983.968,-288 2989.968,-288 2995.968,-294 2995.968,-300 2995.968,-300 2995.968,-312 2995.968,-312 2995.968,-318 2989.968,-324 2983.968,-324"/>
<text text-anchor="middle" x="2968.968" y="-303" font-family="sans" font-size="10.00" fill="#000000">qc</text>
</g>
<!-- 20&#45;&gt;40 -->
<g id="edge81" class="edge">
<title>20-&gt;40</title>
<path fill="none" stroke="#c0c0c0" stroke-width="2" d="M2989.1548,-359.8314C2986.2036,-351.9617 2982.6822,-342.5712 2979.413,-333.8533"/>
<polygon fill="#c0c0c0" stroke="#c0c0c0" stroke-width="2" points="2982.6614,-332.5476 2975.873,-324.4133 2976.1071,-335.0055 2982.6614,-332.5476"/>
</g>
<!-- 21&#45;&gt;0 -->
<g id="edge21" class="edge">
<title>21-&gt;0</title>
<path fill="none" stroke="#c0c0c0" stroke-width="2" d="M85.5092,-287.8058C78.18,-243.0674 66.5769,-127.3235 129.968,-72 183.9801,-24.8619 1303.3557,-18.8271 1522.8228,-18.0963"/>
<polygon fill="#c0c0c0" stroke="#c0c0c0" stroke-width="2" points="1522.884,-21.5962 1532.8728,-18.0645 1522.8618,-14.5963 1522.884,-21.5962"/>
</g>
<!-- 41 -->
<g id="node42" class="node">
<title>41</title>
<path fill="none" stroke="#59d856" stroke-width="2" stroke-dasharray="5,2" d="M437.968,-252C437.968,-252 407.968,-252 407.968,-252 401.968,-252 395.968,-246 395.968,-240 395.968,-240 395.968,-228 395.968,-228 395.968,-222 401.968,-216 407.968,-216 407.968,-216 437.968,-216 437.968,-216 443.968,-216 449.968,-222 449.968,-228 449.968,-228 449.968,-240 449.968,-240 449.968,-246 443.968,-252 437.968,-252"/>
<text text-anchor="middle" x="422.968" y="-231" font-family="sans" font-size="10.00" fill="#000000">star</text>
</g>
<!-- 21&#45;&gt;41 -->
<g id="edge82" class="edge">
<title>21-&gt;41</title>
<path fill="none" stroke="#c0c0c0" stroke-width="2" d="M115.9797,-299.1973C129.9757,-295.7314 147.3611,-291.5178 162.968,-288 242.1141,-270.1605 335.3113,-251.3295 385.8398,-241.3005"/>
<polygon fill="#c0c0c0" stroke="#c0c0c0" stroke-width="2" points="386.8244,-244.6735 395.954,-239.2975 385.4645,-237.8069 386.8244,-244.6735"/>
</g>
<!-- 22&#45;&gt;0 -->
<g id="edge22" class="edge">
<title>22-&gt;0</title>
<path fill="none" stroke="#c0c0c0" stroke-width="2" d="M195.52,-287.8181C188.2153,-243.1079 176.6639,-127.423 239.968,-72 289.5281,-28.61 1313.3539,-19.6079 1522.7554,-18.2182"/>
<polygon fill="#c0c0c0" stroke="#c0c0c0" stroke-width="2" points="1522.9528,-21.7171 1532.9299,-18.1524 1522.9075,-14.7172 1522.9528,-21.7171"/>
</g>
<!-- 42 -->
<g id="node43" class="node">
<title>42</title>
<path fill="none" stroke="#59d856" stroke-width="2" stroke-dasharray="5,2" d="M547.968,-252C547.968,-252 517.968,-252 517.968,-252 511.968,-252 505.968,-246 505.968,-240 505.968,-240 505.968,-228 505.968,-228 505.968,-222 511.968,-216 517.968,-216 517.968,-216 547.968,-216 547.968,-216 553.968,-216 559.968,-222 559.968,-228 559.968,-228 559.968,-240 559.968,-240 559.968,-246 553.968,-252 547.968,-252"/>
<text text-anchor="middle" x="532.968" y="-231" font-family="sans" font-size="10.00" fill="#000000">star</text>
</g>
<!-- 22&#45;&gt;42 -->
<g id="edge83" class="edge">
<title>22-&gt;42</title>
<path fill="none" stroke="#c0c0c0" stroke-width="2" d="M226.3076,-299.022C240.2382,-295.55 257.4668,-291.3834 272.968,-288 355.2321,-270.0445 376.7039,-269.9555 458.968,-252 470.9572,-249.3831 483.9798,-246.2978 495.7105,-243.4277"/>
<polygon fill="#c0c0c0" stroke="#c0c0c0" stroke-width="2" points="496.7594,-246.7739 505.6284,-240.978 495.0808,-239.9781 496.7594,-246.7739"/>
</g>
<!-- 23&#45;&gt;0 -->
<g id="edge23" class="edge">
<title>23-&gt;0</title>
<path fill="none" stroke="#c0c0c0" stroke-width="2" d="M302.4013,-287.941C287.7193,-244.0134 257.8794,-130.8767 315.968,-72 359.41,-27.9686 1319.7638,-19.5053 1522.5698,-18.207"/>
<polygon fill="#c0c0c0" stroke="#c0c0c0" stroke-width="2" points="1522.7407,-21.7061 1532.7188,-18.144 1522.6972,-14.7062 1522.7407,-21.7061"/>
</g>
<!-- 43 -->
<g id="node44" class="node">
<title>43</title>
<path fill="none" stroke="#59d856" stroke-width="2" stroke-dasharray="5,2" d="M657.968,-252C657.968,-252 627.968,-252 627.968,-252 621.968,-252 615.968,-246 615.968,-240 615.968,-240 615.968,-228 615.968,-228 615.968,-222 621.968,-216 627.968,-216 627.968,-216 657.968,-216 657.968,-216 663.968,-216 669.968,-222 669.968,-228 669.968,-228 669.968,-240 669.968,-240 669.968,-246 663.968,-252 657.968,-252"/>
<text text-anchor="middle" x="642.968" y="-231" font-family="sans" font-size="10.00" fill="#000000">star</text>
</g>
<!-- 23&#45;&gt;43 -->
<g id="edge84" class="edge">
<title>23-&gt;43</title>
<path fill="none" stroke="#c0c0c0" stroke-width="2" d="M336.3076,-299.022C350.2382,-295.55 367.4668,-291.3834 382.968,-288 465.2321,-270.0445 486.7039,-269.9555 568.968,-252 580.9572,-249.3831 593.9798,-246.2978 605.7105,-243.4277"/>
<polygon fill="#c0c0c0" stroke="#c0c0c0" stroke-width="2" points="606.7594,-246.7739 615.6284,-240.978 605.0808,-239.9781 606.7594,-246.7739"/>
</g>
<!-- 24&#45;&gt;0 -->
<g id="edge24" class="edge">
<title>24-&gt;0</title>
<path fill="none" stroke="#c0c0c0" stroke-width="2" d="M404.7321,-287.6423C397.9141,-277.6872 390.4818,-264.8222 386.968,-252 369.2118,-187.2068 426.8869,-77.4011 433.968,-72 478.2101,-38.2541 1332.6895,-21.846 1522.7285,-18.6059"/>
<polygon fill="#c0c0c0" stroke="#c0c0c0" stroke-width="2" points="1522.845,-22.1046 1532.7845,-18.4363 1522.7268,-15.1056 1522.845,-22.1046"/>
</g>
<!-- 44 -->
<g id="node45" class="node">
<title>44</title>
<path fill="none" stroke="#59d856" stroke-width="2" stroke-dasharray="5,2" d="M805.968,-252C805.968,-252 775.968,-252 775.968,-252 769.968,-252 763.968,-246 763.968,-240 763.968,-240 763.968,-228 763.968,-228 763.968,-222 769.968,-216 775.968,-216 775.968,-216 805.968,-216 805.968,-216 811.968,-216 817.968,-222 817.968,-228 817.968,-228 817.968,-240 817.968,-240 817.968,-246 811.968,-252 805.968,-252"/>
<text text-anchor="middle" x="790.968" y="-231" font-family="sans" font-size="10.00" fill="#000000">star</text>
</g>
<!-- 24&#45;&gt;44 -->
<g id="edge85" class="edge">
<title>24-&gt;44</title>
<path fill="none" stroke="#c0c0c0" stroke-width="2" d="M446.021,-300.7639C511.5712,-288.0768 678.9955,-255.6721 753.8394,-241.1862"/>
<polygon fill="#c0c0c0" stroke="#c0c0c0" stroke-width="2" points="754.6129,-244.6015 763.7655,-239.265 753.2826,-237.7291 754.6129,-244.6015"/>
</g>
<!-- 25&#45;&gt;0 -->
<g id="edge25" class="edge">
<title>25-&gt;0</title>
<path fill="none" stroke="#c0c0c0" stroke-width="2" d="M586.6107,-287.8043C584.3603,-242.5443 585.64,-124.7478 653.968,-72 688.8663,-45.0592 1355.3749,-23.9471 1522.308,-19.0673"/>
<polygon fill="#c0c0c0" stroke="#c0c0c0" stroke-width="2" points="1522.6749,-22.5582 1532.5692,-18.7694 1522.4718,-15.5611 1522.6749,-22.5582"/>
</g>
<!-- 45 -->
<g id="node46" class="node">
<title>45</title>
<path fill="none" stroke="#59d856" stroke-width="2" stroke-dasharray="5,2" d="M915.968,-252C915.968,-252 885.968,-252 885.968,-252 879.968,-252 873.968,-246 873.968,-240 873.968,-240 873.968,-228 873.968,-228 873.968,-222 879.968,-216 885.968,-216 885.968,-216 915.968,-216 915.968,-216 921.968,-216 927.968,-222 927.968,-228 927.968,-228 927.968,-240 927.968,-240 927.968,-246 921.968,-252 915.968,-252"/>
<text text-anchor="middle" x="900.968" y="-231" font-family="sans" font-size="10.00" fill="#000000">star</text>
</g>
<!-- 25&#45;&gt;45 -->
<g id="edge86" class="edge">
<title>25-&gt;45</title>
<path fill="none" stroke="#c0c0c0" stroke-width="2" d="M615.242,-299.9903C659.6558,-290.1697 750.3506,-269.9726 826.968,-252 839.0148,-249.1741 852.1431,-246.0088 863.9523,-243.1299"/>
<polygon fill="#c0c0c0" stroke="#c0c0c0" stroke-width="2" points="865.0481,-246.4651 873.9302,-240.6894 863.385,-239.6656 865.0481,-246.4651"/>
</g>
<!-- 26&#45;&gt;0 -->
<g id="edge26" class="edge">
<title>26-&gt;0</title>
<path fill="none" stroke="#c0c0c0" stroke-width="2" d="M749.9985,-287.7447C743.7883,-242.3467 735.0811,-124.2566 801.968,-72 859.1466,-27.3281 1377.8268,-19.5557 1522.5963,-18.2531"/>
<polygon fill="#c0c0c0" stroke="#c0c0c0" stroke-width="2" points="1522.7794,-21.7518 1532.7493,-18.167 1522.7199,-14.752 1522.7794,-21.7518"/>
</g>
<!-- 46 -->
<g id="node47" class="node">
<title>46</title>
<path fill="none" stroke="#59d856" stroke-width="2" stroke-dasharray="5,2" d="M1025.968,-252C1025.968,-252 995.968,-252 995.968,-252 989.968,-252 983.968,-246 983.968,-240 983.968,-240 983.968,-228 983.968,-228 983.968,-222 989.968,-216 995.968,-216 995.968,-216 1025.968,-216 1025.968,-216 1031.968,-216 1037.968,-222 1037.968,-228 1037.968,-228 1037.968,-240 1037.968,-240 1037.968,-246 1031.968,-252 1025.968,-252"/>
<text text-anchor="middle" x="1010.968" y="-231" font-family="sans" font-size="10.00" fill="#000000">star</text>
</g>
<!-- 26&#45;&gt;46 -->
<g id="edge87" class="edge">
<title>26-&gt;46</title>
<path fill="none" stroke="#c0c0c0" stroke-width="2" d="M780.0909,-298.4308C826.545,-285.4669 921.3915,-258.9981 973.9091,-244.342"/>
<polygon fill="#c0c0c0" stroke="#c0c0c0" stroke-width="2" points="975.1302,-247.635 983.8214,-241.5758 973.2486,-240.8927 975.1302,-247.635"/>
</g>
<!-- 27&#45;&gt;0 -->
<g id="edge27" class="edge">
<title>27-&gt;0</title>
<path fill="none" stroke="#c0c0c0" stroke-width="2" d="M954.8181,-287.9535C953.0611,-243.0388 955.4823,-125.9767 1022.968,-72 1061.9062,-40.8563 1407.3391,-24.1704 1522.6683,-19.4306"/>
<polygon fill="#c0c0c0" stroke="#c0c0c0" stroke-width="2" points="1522.9301,-22.923 1532.7804,-19.0216 1522.6471,-15.9287 1522.9301,-22.923"/>
</g>
<!-- 47 -->
<g id="node48" class="node">
<title>47</title>
<path fill="none" stroke="#59d856" stroke-width="2" stroke-dasharray="5,2" d="M1173.968,-252C1173.968,-252 1143.968,-252 1143.968,-252 1137.968,-252 1131.968,-246 1131.968,-240 1131.968,-240 1131.968,-228 1131.968,-228 1131.968,-222 1137.968,-216 1143.968,-216 1143.968,-216 1173.968,-216 1173.968,-216 1179.968,-216 1185.968,-222 1185.968,-228 1185.968,-228 1185.968,-240 1185.968,-240 1185.968,-246 1179.968,-252 1173.968,-252"/>
<text text-anchor="middle" x="1158.968" y="-231" font-family="sans" font-size="10.00" fill="#000000">star</text>
</g>
<!-- 27&#45;&gt;47 -->
<g id="edge88" class="edge">
<title>27-&gt;47</title>
<path fill="none" stroke="#c0c0c0" stroke-width="2" d="M983.3455,-296.2898C1019.1623,-283.5863 1082.0549,-261.2795 1122.055,-247.0923"/>
<polygon fill="#c0c0c0" stroke="#c0c0c0" stroke-width="2" points="1123.4461,-250.3126 1131.7009,-243.6711 1121.1061,-243.7153 1123.4461,-250.3126"/>
</g>
<!-- 28&#45;&gt;0 -->
<g id="edge28" class="edge">
<title>28-&gt;0</title>
<path fill="none" stroke="#c0c0c0" stroke-width="2" d="M1118.2925,-287.9933C1112.7762,-243.1706 1105.6371,-126.3045 1170.968,-72 1197.8212,-49.6791 1430.7914,-28.5027 1522.8076,-20.9321"/>
<polygon fill="#c0c0c0" stroke="#c0c0c0" stroke-width="2" points="1523.1157,-24.4187 1532.7985,-20.1182 1522.5473,-17.4418 1523.1157,-24.4187"/>
</g>
<!-- 48 -->
<g id="node49" class="node">
<title>48</title>
<path fill="none" stroke="#59d856" stroke-width="2" stroke-dasharray="5,2" d="M1283.968,-252C1283.968,-252 1253.968,-252 1253.968,-252 1247.968,-252 1241.968,-246 1241.968,-240 1241.968,-240 1241.968,-228 1241.968,-228 1241.968,-222 1247.968,-216 1253.968,-216 1253.968,-216 1283.968,-216 1283.968,-216 1289.968,-216 1295.968,-222 1295.968,-228 1295.968,-228 1295.968,-240 1295.968,-240 1295.968,-246 1289.968,-252 1283.968,-252"/>
<text text-anchor="middle" x="1268.968" y="-231" font-family="sans" font-size="10.00" fill="#000000">star</text>
</g>
<!-- 28&#45;&gt;48 -->
<g id="edge89" class="edge">
<title>28-&gt;48</title>
<path fill="none" stroke="#c0c0c0" stroke-width="2" d="M1148.1135,-292.7941C1171.8224,-281.26 1206.432,-264.4229 1232.5444,-251.7196"/>
<polygon fill="#c0c0c0" stroke="#c0c0c0" stroke-width="2" points="1234.2832,-254.7659 1241.7444,-247.2439 1231.2209,-248.4713 1234.2832,-254.7659"/>
</g>
<!-- 29&#45;&gt;0 -->
<g id="edge29" class="edge">
<title>29-&gt;0</title>
<path fill="none" stroke="#c0c0c0" stroke-width="2" d="M1323.1246,-287.8625C1322.138,-244.2517 1325.9664,-132.6494 1385.968,-72 1405.1609,-52.5998 1477.537,-34.8183 1522.6789,-25.2877"/>
<polygon fill="#c0c0c0" stroke="#c0c0c0" stroke-width="2" points="1523.6115,-28.669 1532.6941,-23.2139 1522.1921,-21.8144 1523.6115,-28.669"/>
</g>
<!-- 49 -->
<g id="node50" class="node">
<title>49</title>
<path fill="none" stroke="#59d856" stroke-width="2" stroke-dasharray="5,2" d="M1393.968,-252C1393.968,-252 1363.968,-252 1363.968,-252 1357.968,-252 1351.968,-246 1351.968,-240 1351.968,-240 1351.968,-228 1351.968,-228 1351.968,-222 1357.968,-216 1363.968,-216 1363.968,-216 1393.968,-216 1393.968,-216 1399.968,-216 1405.968,-222 1405.968,-228 1405.968,-228 1405.968,-240 1405.968,-240 1405.968,-246 1399.968,-252 1393.968,-252"/>
<text text-anchor="middle" x="1378.968" y="-231" font-family="sans" font-size="10.00" fill="#000000">star</text>
</g>
<!-- 29&#45;&gt;49 -->
<g id="edge90" class="edge">
<title>29-&gt;49</title>
<path fill="none" stroke="#c0c0c0" stroke-width="2" d="M1337.8468,-287.8314C1344.1816,-279.5386 1351.8064,-269.557 1358.7606,-260.4533"/>
<polygon fill="#c0c0c0" stroke="#c0c0c0" stroke-width="2" points="1361.6132,-262.4847 1364.9023,-252.4133 1356.0505,-258.2353 1361.6132,-262.4847"/>
</g>
<!-- 30&#45;&gt;0 -->
<g id="edge30" class="edge">
<title>30-&gt;0</title>
<path fill="none" stroke="#c0c0c0" stroke-width="2" d="M1486.8416,-287.932C1482.8543,-247.203 1477.5096,-146.0132 1511.968,-72 1516.7021,-61.8316 1523.9856,-52.1781 1531.4598,-43.9206"/>
<polygon fill="#c0c0c0" stroke="#c0c0c0" stroke-width="2" points="1534.2166,-46.1024 1538.6072,-36.4601 1529.1619,-41.2598 1534.2166,-46.1024"/>
</g>
<!-- 50 -->
<g id="node51" class="node">
<title>50</title>
<path fill="none" stroke="#59d856" stroke-width="2" stroke-dasharray="5,2" d="M1541.968,-252C1541.968,-252 1511.968,-252 1511.968,-252 1505.968,-252 1499.968,-246 1499.968,-240 1499.968,-240 1499.968,-228 1499.968,-228 1499.968,-222 1505.968,-216 1511.968,-216 1511.968,-216 1541.968,-216 1541.968,-216 1547.968,-216 1553.968,-222 1553.968,-228 1553.968,-228 1553.968,-240 1553.968,-240 1553.968,-246 1547.968,-252 1541.968,-252"/>
<text text-anchor="middle" x="1526.968" y="-231" font-family="sans" font-size="10.00" fill="#000000">star</text>
</g>
<!-- 30&#45;&gt;50 -->
<g id="edge91" class="edge">
<title>30-&gt;50</title>
<path fill="none" stroke="#c0c0c0" stroke-width="2" d="M1498.557,-287.8314C1502.7997,-279.7925 1507.8801,-270.1666 1512.564,-261.2918"/>
<polygon fill="#c0c0c0" stroke="#c0c0c0" stroke-width="2" points="1515.6776,-262.8908 1517.2499,-252.4133 1509.4869,-259.6235 1515.6776,-262.8908"/>
</g>
<!-- 31&#45;&gt;0 -->
<g id="edge31" class="edge">
<title>31-&gt;0</title>
<path fill="none" stroke="#c0c0c0" stroke-width="2" d="M1639.5372,-287.7716C1644.4472,-246.7143 1651.657,-144.896 1614.968,-72 1609.524,-61.1835 1601.0564,-51.2665 1592.383,-42.9647"/>
<polygon fill="#c0c0c0" stroke="#c0c0c0" stroke-width="2" points="1594.5478,-40.2038 1584.7788,-36.1029 1589.8583,-45.4008 1594.5478,-40.2038"/>
</g>
<!-- 51 -->
<g id="node52" class="node">
<title>51</title>
<path fill="none" stroke="#59d856" stroke-width="2" stroke-dasharray="5,2" d="M1613.968,-252C1613.968,-252 1583.968,-252 1583.968,-252 1577.968,-252 1571.968,-246 1571.968,-240 1571.968,-240 1571.968,-228 1571.968,-228 1571.968,-222 1577.968,-216 1583.968,-216 1583.968,-216 1613.968,-216 1613.968,-216 1619.968,-216 1625.968,-222 1625.968,-228 1625.968,-228 1625.968,-240 1625.968,-240 1625.968,-246 1619.968,-252 1613.968,-252"/>
<text text-anchor="middle" x="1598.968" y="-231" font-family="sans" font-size="10.00" fill="#000000">star</text>
</g>
<!-- 31&#45;&gt;51 -->
<g id="edge92" class="edge">
<title>31-&gt;51</title>
<path fill="none" stroke="#c0c0c0" stroke-width="2" d="M1627.379,-287.8314C1623.1363,-279.7925 1618.0559,-270.1666 1613.372,-261.2918"/>
<polygon fill="#c0c0c0" stroke="#c0c0c0" stroke-width="2" points="1616.4491,-259.6235 1608.6861,-252.4133 1610.2584,-262.8908 1616.4491,-259.6235"/>
</g>
<!-- 32&#45;&gt;0 -->
<g id="edge32" class="edge">
<title>32-&gt;0</title>
<path fill="none" stroke="#c0c0c0" stroke-width="2" d="M1802.4764,-287.7263C1802.6479,-243.813 1796.6746,-131.5899 1734.968,-72 1715.2345,-52.9434 1642.5923,-35.0422 1597.3343,-25.3972"/>
<polygon fill="#c0c0c0" stroke="#c0c0c0" stroke-width="2" points="1597.7994,-21.9188 1587.2946,-23.297 1596.366,-28.7705 1597.7994,-21.9188"/>
</g>
<!-- 52 -->
<g id="node53" class="node">
<title>52</title>
<path fill="none" stroke="#59d856" stroke-width="2" stroke-dasharray="5,2" d="M1761.968,-252C1761.968,-252 1731.968,-252 1731.968,-252 1725.968,-252 1719.968,-246 1719.968,-240 1719.968,-240 1719.968,-228 1719.968,-228 1719.968,-222 1725.968,-216 1731.968,-216 1731.968,-216 1761.968,-216 1761.968,-216 1767.968,-216 1773.968,-222 1773.968,-228 1773.968,-228 1773.968,-240 1773.968,-240 1773.968,-246 1767.968,-252 1761.968,-252"/>
<text text-anchor="middle" x="1746.968" y="-231" font-family="sans" font-size="10.00" fill="#000000">star</text>
</g>
<!-- 32&#45;&gt;52 -->
<g id="edge93" class="edge">
<title>32-&gt;52</title>
<path fill="none" stroke="#c0c0c0" stroke-width="2" d="M1788.0892,-287.8314C1781.7544,-279.5386 1774.1296,-269.557 1767.1754,-260.4533"/>
<polygon fill="#c0c0c0" stroke="#c0c0c0" stroke-width="2" points="1769.8855,-258.2353 1761.0337,-252.4133 1764.3228,-262.4847 1769.8855,-258.2353"/>
</g>
<!-- 33&#45;&gt;0 -->
<g id="edge33" class="edge">
<title>33-&gt;0</title>
<path fill="none" stroke="#c0c0c0" stroke-width="2" d="M1966.4394,-287.9189C1964.5983,-238.3494 1956.7785,-101.9906 1925.968,-72 1902.5827,-49.237 1685.6474,-28.5821 1597.2198,-21.0351"/>
<polygon fill="#c0c0c0" stroke="#c0c0c0" stroke-width="2" points="1597.3536,-17.534 1587.0946,-20.1805 1596.7648,-24.5092 1597.3536,-17.534"/>
</g>
<!-- 53 -->
<g id="node54" class="node">
<title>53</title>
<path fill="none" stroke="#59d856" stroke-width="2" stroke-dasharray="5,2" d="M1871.968,-252C1871.968,-252 1841.968,-252 1841.968,-252 1835.968,-252 1829.968,-246 1829.968,-240 1829.968,-240 1829.968,-228 1829.968,-228 1829.968,-222 1835.968,-216 1841.968,-216 1841.968,-216 1871.968,-216 1871.968,-216 1877.968,-216 1883.968,-222 1883.968,-228 1883.968,-228 1883.968,-240 1883.968,-240 1883.968,-246 1877.968,-252 1871.968,-252"/>
<text text-anchor="middle" x="1856.968" y="-231" font-family="sans" font-size="10.00" fill="#000000">star</text>
</g>
<!-- 33&#45;&gt;53 -->
<g id="edge94" class="edge">
<title>33-&gt;53</title>
<path fill="none" stroke="#c0c0c0" stroke-width="2" d="M1939.777,-288.2022C1925.6302,-278.9425 1908.1523,-267.5025 1892.905,-257.5224"/>
<polygon fill="#c0c0c0" stroke="#c0c0c0" stroke-width="2" points="1894.5113,-254.3907 1884.2274,-251.8425 1890.6777,-260.2476 1894.5113,-254.3907"/>
</g>
<!-- 34&#45;&gt;0 -->
<g id="edge34" class="edge">
<title>34-&gt;0</title>
<path fill="none" stroke="#c0c0c0" stroke-width="2" d="M2155.6872,-287.9841C2161.3796,-242.6158 2168.8999,-123.6095 2100.968,-72 2060.9725,-41.6145 1713.4752,-24.4259 1597.4801,-19.4952"/>
<polygon fill="#c0c0c0" stroke="#c0c0c0" stroke-width="2" points="1597.4476,-15.9909 1587.3098,-19.0693 1597.1546,-22.9848 1597.4476,-15.9909"/>
</g>
<!-- 54 -->
<g id="node55" class="node">
<title>54</title>
<path fill="none" stroke="#59d856" stroke-width="2" stroke-dasharray="5,2" d="M2019.968,-252C2019.968,-252 1989.968,-252 1989.968,-252 1983.968,-252 1977.968,-246 1977.968,-240 1977.968,-240 1977.968,-228 1977.968,-228 1977.968,-222 1983.968,-216 1989.968,-216 1989.968,-216 2019.968,-216 2019.968,-216 2025.968,-216 2031.968,-222 2031.968,-228 2031.968,-228 2031.968,-240 2031.968,-240 2031.968,-246 2025.968,-252 2019.968,-252"/>
<text text-anchor="middle" x="2004.968" y="-231" font-family="sans" font-size="10.00" fill="#000000">star</text>
</g>
<!-- 34&#45;&gt;54 -->
<g id="edge95" class="edge">
<title>34-&gt;54</title>
<path fill="none" stroke="#c0c0c0" stroke-width="2" d="M2125.8225,-292.7941C2102.1136,-281.26 2067.504,-264.4229 2041.3916,-251.7196"/>
<polygon fill="#c0c0c0" stroke="#c0c0c0" stroke-width="2" points="2042.7151,-248.4713 2032.1916,-247.2439 2039.6528,-254.7659 2042.7151,-248.4713"/>
</g>
<!-- 35&#45;&gt;0 -->
<g id="edge35" class="edge">
<title>35-&gt;0</title>
<path fill="none" stroke="#c0c0c0" stroke-width="2" d="M2319.2125,-287.7156C2321.1749,-242.2503 2319.0987,-124.017 2249.968,-72 2197.6181,-32.6096 1733.675,-21.1426 1597.4295,-18.6103"/>
<polygon fill="#c0c0c0" stroke="#c0c0c0" stroke-width="2" points="1597.1576,-15.105 1587.0961,-18.4239 1597.0313,-22.1038 1597.1576,-15.105"/>
</g>
<!-- 55 -->
<g id="node56" class="node">
<title>55</title>
<path fill="none" stroke="#59d856" stroke-width="2" stroke-dasharray="5,2" d="M2129.968,-252C2129.968,-252 2099.968,-252 2099.968,-252 2093.968,-252 2087.968,-246 2087.968,-240 2087.968,-240 2087.968,-228 2087.968,-228 2087.968,-222 2093.968,-216 2099.968,-216 2099.968,-216 2129.968,-216 2129.968,-216 2135.968,-216 2141.968,-222 2141.968,-228 2141.968,-228 2141.968,-240 2141.968,-240 2141.968,-246 2135.968,-252 2129.968,-252"/>
<text text-anchor="middle" x="2114.968" y="-231" font-family="sans" font-size="10.00" fill="#000000">star</text>
</g>
<!-- 35&#45;&gt;55 -->
<g id="edge96" class="edge">
<title>35-&gt;55</title>
<path fill="none" stroke="#c0c0c0" stroke-width="2" d="M2290.5905,-296.2898C2254.7737,-283.5863 2191.8811,-261.2795 2151.881,-247.0923"/>
<polygon fill="#c0c0c0" stroke="#c0c0c0" stroke-width="2" points="2152.8299,-243.7153 2142.2351,-243.6711 2150.4899,-250.3126 2152.8299,-243.7153"/>
</g>
<!-- 36&#45;&gt;0 -->
<g id="edge36" class="edge">
<title>36-&gt;0</title>
<path fill="none" stroke="#c0c0c0" stroke-width="2" d="M2455.5758,-287.6818C2470.1458,-243.67 2499.3899,-131.2445 2441.968,-72 2412.1268,-41.2116 1761.5959,-23.0116 1597.3618,-18.8969"/>
<polygon fill="#c0c0c0" stroke="#c0c0c0" stroke-width="2" points="1597.3428,-15.3955 1587.259,-18.6463 1597.1691,-22.3933 1597.3428,-15.3955"/>
</g>
<!-- 56 -->
<g id="node57" class="node">
<title>56</title>
<path fill="none" stroke="#59d856" stroke-width="2" stroke-dasharray="5,2" d="M2277.968,-252C2277.968,-252 2247.968,-252 2247.968,-252 2241.968,-252 2235.968,-246 2235.968,-240 2235.968,-240 2235.968,-228 2235.968,-228 2235.968,-222 2241.968,-216 2247.968,-216 2247.968,-216 2277.968,-216 2277.968,-216 2283.968,-216 2289.968,-222 2289.968,-228 2289.968,-228 2289.968,-240 2289.968,-240 2289.968,-246 2283.968,-252 2277.968,-252"/>
<text text-anchor="middle" x="2262.968" y="-231" font-family="sans" font-size="10.00" fill="#000000">star</text>
</g>
<!-- 36&#45;&gt;56 -->
<g id="edge97" class="edge">
<title>36-&gt;56</title>
<path fill="none" stroke="#c0c0c0" stroke-width="2" d="M2421.922,-295.5306C2389.6882,-283.053 2335.6757,-262.1449 2299.6865,-248.2136"/>
<polygon fill="#c0c0c0" stroke="#c0c0c0" stroke-width="2" points="2300.6358,-244.8281 2290.0466,-244.4821 2298.1088,-251.356 2300.6358,-244.8281"/>
</g>
<!-- 37&#45;&gt;0 -->
<g id="edge37" class="edge">
<title>37-&gt;0</title>
<path fill="none" stroke="#c0c0c0" stroke-width="2" d="M2599.8824,-287.8458C2606.0459,-242.1531 2614.6717,-122.4483 2545.968,-72 2507.0352,-43.4121 1772.3177,-23.3042 1597.2049,-18.905"/>
<polygon fill="#c0c0c0" stroke="#c0c0c0" stroke-width="2" points="1597.2685,-15.4056 1587.1843,-18.6552 1597.0939,-22.4035 1597.2685,-15.4056"/>
</g>
<!-- 57 -->
<g id="node58" class="node">
<title>57</title>
<path fill="none" stroke="#59d856" stroke-width="2" stroke-dasharray="5,2" d="M2387.968,-252C2387.968,-252 2357.968,-252 2357.968,-252 2351.968,-252 2345.968,-246 2345.968,-240 2345.968,-240 2345.968,-228 2345.968,-228 2345.968,-222 2351.968,-216 2357.968,-216 2357.968,-216 2387.968,-216 2387.968,-216 2393.968,-216 2399.968,-222 2399.968,-228 2399.968,-228 2399.968,-240 2399.968,-240 2399.968,-246 2393.968,-252 2387.968,-252"/>
<text text-anchor="middle" x="2372.968" y="-231" font-family="sans" font-size="10.00" fill="#000000">star</text>
</g>
<!-- 37&#45;&gt;57 -->
<g id="edge98" class="edge">
<title>37-&gt;57</title>
<path fill="none" stroke="#c0c0c0" stroke-width="2" d="M2569.9484,-297.3151C2529.9218,-284.4494 2454.7665,-260.2924 2409.7515,-245.8233"/>
<polygon fill="#c0c0c0" stroke="#c0c0c0" stroke-width="2" points="2410.6748,-242.4437 2400.0835,-242.7157 2408.5327,-249.1079 2410.6748,-242.4437"/>
</g>
<!-- 38&#45;&gt;0 -->
<g id="edge38" class="edge">
<title>38-&gt;0</title>
<path fill="none" stroke="#c0c0c0" stroke-width="2" d="M2706.5869,-287.7598C2705.1281,-237.7779 2698.2062,-100.4503 2665.968,-72 2625.0297,-35.8718 1785.5049,-21.3364 1597.2224,-18.5244"/>
<polygon fill="#c0c0c0" stroke="#c0c0c0" stroke-width="2" points="1597.0546,-15.0216 1587.0041,-18.3738 1596.9514,-22.0208 1597.0546,-15.0216"/>
</g>
<!-- 58 -->
<g id="node59" class="node">
<title>58</title>
<path fill="none" stroke="#59d856" stroke-width="2" stroke-dasharray="5,2" d="M2573.968,-252C2573.968,-252 2543.968,-252 2543.968,-252 2537.968,-252 2531.968,-246 2531.968,-240 2531.968,-240 2531.968,-228 2531.968,-228 2531.968,-222 2537.968,-216 2543.968,-216 2543.968,-216 2573.968,-216 2573.968,-216 2579.968,-216 2585.968,-222 2585.968,-228 2585.968,-228 2585.968,-240 2585.968,-240 2585.968,-246 2579.968,-252 2573.968,-252"/>
<text text-anchor="middle" x="2558.968" y="-231" font-family="sans" font-size="10.00" fill="#000000">star</text>
</g>
<!-- 38&#45;&gt;58 -->
<g id="edge99" class="edge">
<title>38-&gt;58</title>
<path fill="none" stroke="#c0c0c0" stroke-width="2" d="M2679.8225,-292.7941C2656.1136,-281.26 2621.504,-264.4229 2595.3916,-251.7196"/>
<polygon fill="#c0c0c0" stroke="#c0c0c0" stroke-width="2" points="2596.7151,-248.4713 2586.1916,-247.2439 2593.6528,-254.7659 2596.7151,-248.4713"/>
</g>
<!-- 39&#45;&gt;0 -->
<g id="edge39" class="edge">
<title>39-&gt;0</title>
<path fill="none" stroke="#c0c0c0" stroke-width="2" d="M2827.5359,-287.9397C2842.2209,-244.0093 2872.0668,-130.8667 2813.968,-72 2770.1463,-27.5991 1801.0627,-19.4233 1597.3383,-18.1934"/>
<polygon fill="#c0c0c0" stroke="#c0c0c0" stroke-width="2" points="1597.1678,-14.6924 1587.1475,-18.1338 1597.1269,-21.6923 1597.1678,-14.6924"/>
</g>
<!-- 59 -->
<g id="node60" class="node">
<title>59</title>
<path fill="none" stroke="#59d856" stroke-width="2" stroke-dasharray="5,2" d="M2759.968,-252C2759.968,-252 2729.968,-252 2729.968,-252 2723.968,-252 2717.968,-246 2717.968,-240 2717.968,-240 2717.968,-228 2717.968,-228 2717.968,-222 2723.968,-216 2729.968,-216 2729.968,-216 2759.968,-216 2759.968,-216 2765.968,-216 2771.968,-222 2771.968,-228 2771.968,-228 2771.968,-240 2771.968,-240 2771.968,-246 2765.968,-252 2759.968,-252"/>
<text text-anchor="middle" x="2744.968" y="-231" font-family="sans" font-size="10.00" fill="#000000">star</text>
</g>
<!-- 39&#45;&gt;59 -->
<g id="edge100" class="edge">
<title>39-&gt;59</title>
<path fill="none" stroke="#c0c0c0" stroke-width="2" d="M2801.79,-287.8314C2792.6092,-279.1337 2781.4674,-268.5783 2771.4904,-259.1265"/>
<polygon fill="#c0c0c0" stroke="#c0c0c0" stroke-width="2" points="2773.8065,-256.4995 2764.1399,-252.1628 2768.9923,-261.5811 2773.8065,-256.4995"/>
</g>
<!-- 40&#45;&gt;0 -->
<g id="edge40" class="edge">
<title>40-&gt;0</title>
<path fill="none" stroke="#c0c0c0" stroke-width="2" d="M2971.9271,-287.7844C2978.1956,-241.9477 2987.0474,-121.9326 2917.968,-72 2862.9633,-32.241 1809.5821,-20.3278 1597.1247,-18.3251"/>
<polygon fill="#c0c0c0" stroke="#c0c0c0" stroke-width="2" points="1597.1246,-14.8251 1587.0925,-18.2321 1597.0596,-21.8248 1597.1246,-14.8251"/>
</g>
<!-- 60 -->
<g id="node61" class="node">
<title>60</title>
<path fill="none" stroke="#59d856" stroke-width="2" stroke-dasharray="5,2" d="M2945.968,-252C2945.968,-252 2915.968,-252 2915.968,-252 2909.968,-252 2903.968,-246 2903.968,-240 2903.968,-240 2903.968,-228 2903.968,-228 2903.968,-222 2909.968,-216 2915.968,-216 2915.968,-216 2945.968,-216 2945.968,-216 2951.968,-216 2957.968,-222 2957.968,-228 2957.968,-228 2957.968,-240 2957.968,-240 2957.968,-246 2951.968,-252 2945.968,-252"/>
<text text-anchor="middle" x="2930.968" y="-231" font-family="sans" font-size="10.00" fill="#000000">star</text>
</g>
<!-- 40&#45;&gt;60 -->
<g id="edge101" class="edge">
<title>40-&gt;60</title>
<path fill="none" stroke="#c0c0c0" stroke-width="2" d="M2959.379,-287.8314C2955.1363,-279.7925 2950.0559,-270.1666 2945.372,-261.2918"/>
<polygon fill="#c0c0c0" stroke="#c0c0c0" stroke-width="2" points="2948.4491,-259.6235 2940.6861,-252.4133 2942.2584,-262.8908 2948.4491,-259.6235"/>
</g>
<!-- 41&#45;&gt;0 -->
<g id="edge41" class="edge">
<title>41-&gt;0</title>
<path fill="none" stroke="#c0c0c0" stroke-width="2" d="M421.3237,-215.8404C419.3412,-181.5353 420.6442,-107.4716 463.968,-72 505.8108,-37.741 1335.8654,-21.7699 1522.7974,-18.5997"/>
<polygon fill="#c0c0c0" stroke="#c0c0c0" stroke-width="2" points="1523.0065,-22.0968 1532.9464,-18.4295 1522.8891,-15.0977 1523.0065,-22.0968"/>
</g>
<!-- 62 -->
<g id="node63" class="node">
<title>62</title>
<path fill="none" stroke="#d8ac56" stroke-width="2" stroke-dasharray="5,2" d="M1580.2828,-180C1580.2828,-180 1539.6532,-180 1539.6532,-180 1533.6532,-180 1527.6532,-174 1527.6532,-168 1527.6532,-168 1527.6532,-156 1527.6532,-156 1527.6532,-150 1533.6532,-144 1539.6532,-144 1539.6532,-144 1580.2828,-144 1580.2828,-144 1586.2828,-144 1592.2828,-150 1592.2828,-156 1592.2828,-156 1592.2828,-168 1592.2828,-168 1592.2828,-174 1586.2828,-180 1580.2828,-180"/>
<text text-anchor="middle" x="1559.968" y="-159" font-family="sans" font-size="10.00" fill="#000000">count_reads</text>
</g>
<!-- 41&#45;&gt;62 -->
<g id="edge103" class="edge">
<title>41-&gt;62</title>
<path fill="none" stroke="#c0c0c0" stroke-width="2" d="M450.139,-226.0942C464.0265,-222.3856 481.2676,-218.2876 496.968,-216 699.1338,-186.5443 1345.1263,-167.6858 1517.4045,-163.0937"/>
<polygon fill="#c0c0c0" stroke="#c0c0c0" stroke-width="2" points="1517.6903,-166.5875 1527.5942,-162.8241 1517.505,-159.5899 1517.6903,-166.5875"/>
</g>
<!-- 42&#45;&gt;0 -->
<g id="edge42" class="edge">
<title>42-&gt;0</title>
<path fill="none" stroke="#c0c0c0" stroke-width="2" d="M531.3414,-215.8619C529.3891,-181.5937 530.7416,-107.5902 573.968,-72 611.2567,-41.2986 1347.2252,-22.7989 1522.6606,-18.8144"/>
<polygon fill="#c0c0c0" stroke="#c0c0c0" stroke-width="2" points="1522.7811,-22.3127 1532.6998,-18.5884 1522.6235,-15.3145 1522.7811,-22.3127"/>
</g>
<!-- 42&#45;&gt;62 -->
<g id="edge104" class="edge">
<title>42-&gt;62</title>
<path fill="none" stroke="#c0c0c0" stroke-width="2" d="M560.1447,-226.133C574.0337,-222.4344 591.2743,-218.3335 606.968,-216 786.4291,-189.3164 1356.1192,-168.7729 1517.1792,-163.3879"/>
<polygon fill="#c0c0c0" stroke="#c0c0c0" stroke-width="2" points="1517.7461,-166.871 1527.6243,-163.0408 1517.5136,-159.8749 1517.7461,-166.871"/>
</g>
<!-- 43&#45;&gt;0 -->
<g id="edge43" class="edge">
<title>43-&gt;0</title>
<path fill="none" stroke="#c0c0c0" stroke-width="2" d="M641.3636,-215.8888C639.4493,-181.6665 640.8638,-107.7381 683.968,-72 716.7158,-44.8485 1359.1002,-23.9707 1522.4448,-19.0863"/>
<polygon fill="#c0c0c0" stroke="#c0c0c0" stroke-width="2" points="1522.608,-22.5831 1532.4997,-18.7879 1522.4002,-15.5862 1522.608,-22.5831"/>
</g>
<!-- 43&#45;&gt;62 -->
<g id="edge105" class="edge">
<title>43-&gt;62</title>
<path fill="none" stroke="#c0c0c0" stroke-width="2" d="M670.0298,-228.9316C692.654,-224.8677 725.8117,-219.3137 754.968,-216 1045.428,-182.9888 1397.3141,-167.9124 1517.4285,-163.4683"/>
<polygon fill="#c0c0c0" stroke="#c0c0c0" stroke-width="2" points="1517.7969,-166.9573 1527.6626,-163.0948 1517.5415,-159.9619 1517.7969,-166.9573"/>
</g>
<!-- 44&#45;&gt;0 -->
<g id="edge44" class="edge">
<title>44-&gt;0</title>
<path fill="none" stroke="#c0c0c0" stroke-width="2" d="M789.4042,-215.9375C787.5594,-181.7985 789.0876,-108.0062 831.968,-72 885.1765,-27.3214 1381.397,-19.563 1522.6284,-18.2566"/>
<polygon fill="#c0c0c0" stroke="#c0c0c0" stroke-width="2" points="1522.9604,-21.7539 1532.9296,-18.1671 1522.8995,-14.7542 1522.9604,-21.7539"/>
</g>
<!-- 44&#45;&gt;62 -->
<g id="edge106" class="edge">
<title>44-&gt;62</title>
<path fill="none" stroke="#c0c0c0" stroke-width="2" d="M818.1661,-226.272C832.0606,-222.6088 849.2996,-218.4976 864.968,-216 1109.8842,-176.959 1408.041,-165.8195 1517.2616,-162.9286"/>
<polygon fill="#c0c0c0" stroke="#c0c0c0" stroke-width="2" points="1517.6277,-166.4205 1527.5352,-162.6665 1517.4491,-159.4228 1517.6277,-166.4205"/>
</g>
<!-- 45&#45;&gt;0 -->
<g id="edge45" class="edge">
<title>45-&gt;0</title>
<path fill="none" stroke="#c0c0c0" stroke-width="2" d="M899.4473,-215.9885C897.6761,-181.9366 899.3246,-108.2867 941.968,-72 986.2516,-34.3176 1395.6048,-21.7836 1522.5855,-18.7844"/>
<polygon fill="#c0c0c0" stroke="#c0c0c0" stroke-width="2" points="1523.0358,-22.2751 1532.9527,-18.5461 1522.8748,-15.2769 1523.0358,-22.2751"/>
</g>
<!-- 45&#45;&gt;62 -->
<g id="edge107" class="edge">
<title>45-&gt;62</title>
<path fill="none" stroke="#c0c0c0" stroke-width="2" d="M928.1818,-226.3682C942.0803,-222.7295 959.3182,-218.6112 974.968,-216 1176.4199,-182.3875 1420.6454,-168.3192 1517.4735,-163.7855"/>
<polygon fill="#c0c0c0" stroke="#c0c0c0" stroke-width="2" points="1517.9023,-167.2696 1527.7315,-163.3153 1517.5817,-160.277 1517.9023,-167.2696"/>
</g>
<!-- 46&#45;&gt;0 -->
<g id="edge46" class="edge">
<title>46-&gt;0</title>
<path fill="none" stroke="#c0c0c0" stroke-width="2" d="M1009.4966,-215.7963C1007.8541,-181.7522 1009.7762,-108.5897 1051.968,-72 1087.4255,-41.2505 1411.5517,-24.4329 1522.7378,-19.5307"/>
<polygon fill="#c0c0c0" stroke="#c0c0c0" stroke-width="2" points="1522.9773,-23.0237 1532.8161,-19.0934 1522.6738,-16.0302 1522.9773,-23.0237"/>
</g>
<!-- 46&#45;&gt;62 -->
<g id="edge108" class="edge">
<title>46-&gt;62</title>
<path fill="none" stroke="#c0c0c0" stroke-width="2" d="M1038.0843,-229.3585C1060.741,-225.5486 1093.9158,-220.1281 1122.968,-216 1267.4714,-195.4669 1439.5048,-175.5248 1517.626,-166.7133"/>
<polygon fill="#c0c0c0" stroke="#c0c0c0" stroke-width="2" points="1518.0235,-170.1908 1527.5695,-165.5947 1517.2409,-163.2347 1518.0235,-170.1908"/>
</g>
<!-- 47&#45;&gt;0 -->
<g id="edge47" class="edge">
<title>47-&gt;0</title>
<path fill="none" stroke="#c0c0c0" stroke-width="2" d="M1157.6435,-215.9621C1156.2491,-182.1978 1158.5723,-109.4881 1199.968,-72 1223.7134,-50.4961 1435.673,-29.1811 1522.8115,-21.2452"/>
<polygon fill="#c0c0c0" stroke="#c0c0c0" stroke-width="2" points="1523.1531,-24.7287 1532.7983,-20.3447 1522.5243,-17.757 1523.1531,-24.7287"/>
</g>
<!-- 47&#45;&gt;62 -->
<g id="edge109" class="edge">
<title>47-&gt;62</title>
<path fill="none" stroke="#c0c0c0" stroke-width="2" d="M1186.2695,-226.8411C1200.1902,-223.323 1217.4217,-219.1698 1232.968,-216 1334.4978,-195.2989 1454.9974,-177.0009 1517.5379,-167.9687"/>
<polygon fill="#c0c0c0" stroke="#c0c0c0" stroke-width="2" points="1518.3944,-171.3817 1527.7952,-166.4955 1517.3992,-164.4528 1518.3944,-171.3817"/>
</g>
<!-- 48&#45;&gt;0 -->
<g id="edge48" class="edge">
<title>48-&gt;0</title>
<path fill="none" stroke="#c0c0c0" stroke-width="2" d="M1267.8604,-215.9418C1266.8686,-182.4697 1269.8942,-110.6894 1309.968,-72 1339.9396,-43.0638 1460.291,-27.5347 1522.4249,-21.3049"/>
<polygon fill="#c0c0c0" stroke="#c0c0c0" stroke-width="2" points="1522.9808,-24.7674 1532.5952,-20.3162 1522.3035,-17.8002 1522.9808,-24.7674"/>
</g>
<!-- 48&#45;&gt;62 -->
<g id="edge110" class="edge">
<title>48-&gt;62</title>
<path fill="none" stroke="#c0c0c0" stroke-width="2" d="M1296.0833,-227.2911C1346.9007,-214.7177 1456.8031,-187.5253 1517.5181,-172.5031"/>
<polygon fill="#c0c0c0" stroke="#c0c0c0" stroke-width="2" points="1518.6739,-175.8227 1527.5406,-170.0233 1516.9926,-169.0276 1518.6739,-175.8227"/>
</g>
<!-- 49&#45;&gt;0 -->
<g id="edge49" class="edge">
<title>49-&gt;0</title>
<path fill="none" stroke="#c0c0c0" stroke-width="2" d="M1377.0576,-215.7557C1374.6666,-182.9276 1374.5281,-113.4698 1409.968,-72 1438.1597,-39.0117 1488.0807,-26.1756 1522.542,-21.1811"/>
<polygon fill="#c0c0c0" stroke="#c0c0c0" stroke-width="2" points="1523.2301,-24.6214 1532.6994,-19.8692 1522.3334,-17.679 1523.2301,-24.6214"/>
</g>
<!-- 49&#45;&gt;62 -->
<g id="edge111" class="edge">
<title>49-&gt;62</title>
<path fill="none" stroke="#c0c0c0" stroke-width="2" d="M1406.0655,-223.2209C1435.813,-211.3876 1483.9273,-192.2483 1518.442,-178.5186"/>
<polygon fill="#c0c0c0" stroke="#c0c0c0" stroke-width="2" points="1519.7916,-181.7486 1527.7897,-174.8002 1517.2042,-175.2443 1519.7916,-181.7486"/>
</g>
<!-- 50&#45;&gt;0 -->
<g id="edge50" class="edge">
<title>50-&gt;0</title>
<path fill="none" stroke="#c0c0c0" stroke-width="2" d="M1522.558,-215.8918C1515.9633,-185.2878 1506.0145,-121.8033 1522.968,-72 1526.284,-62.2587 1531.8831,-52.6528 1537.7354,-44.3052"/>
<polygon fill="#c0c0c0" stroke="#c0c0c0" stroke-width="2" points="1540.6739,-46.2192 1543.8406,-36.1087 1535.0601,-42.0377 1540.6739,-46.2192"/>
</g>
<!-- 50&#45;&gt;62 -->
<g id="edge112" class="edge">
<title>50-&gt;62</title>
<path fill="none" stroke="#c0c0c0" stroke-width="2" d="M1535.2953,-215.8314C1538.941,-207.8771 1543.2989,-198.369 1547.3307,-189.5723"/>
<polygon fill="#c0c0c0" stroke="#c0c0c0" stroke-width="2" points="1550.5437,-190.9622 1551.5286,-180.4133 1544.1803,-188.0456 1550.5437,-190.9622"/>
</g>
<!-- 51&#45;&gt;0 -->
<g id="edge51" class="edge">
<title>51-&gt;0</title>
<path fill="none" stroke="#c0c0c0" stroke-width="2" d="M1602.3045,-215.8894C1607.1721,-185.2816 1613.9177,-121.7919 1596.968,-72 1593.652,-62.2587 1588.0529,-52.6528 1582.2006,-44.3052"/>
<polygon fill="#c0c0c0" stroke="#c0c0c0" stroke-width="2" points="1584.8759,-42.0377 1576.0954,-36.1087 1579.2621,-46.2192 1584.8759,-42.0377"/>
</g>
<!-- 51&#45;&gt;62 -->
<g id="edge113" class="edge">
<title>51-&gt;62</title>
<path fill="none" stroke="#c0c0c0" stroke-width="2" d="M1589.1267,-215.8314C1584.7723,-207.7925 1579.5582,-198.1666 1574.7511,-189.2918"/>
<polygon fill="#c0c0c0" stroke="#c0c0c0" stroke-width="2" points="1577.7823,-187.5392 1569.9419,-180.4133 1571.6272,-190.8732 1577.7823,-187.5392"/>
</g>
<!-- 52&#45;&gt;0 -->
<g id="edge52" class="edge">
<title>52-&gt;0</title>
<path fill="none" stroke="#c0c0c0" stroke-width="2" d="M1748.0895,-215.9494C1749.1175,-183.1244 1746.5037,-113.2478 1709.968,-72 1681.1957,-39.5168 1631.4053,-26.5672 1597.1324,-21.4087"/>
<polygon fill="#c0c0c0" stroke="#c0c0c0" stroke-width="2" points="1597.4131,-17.9149 1587.0346,-20.045 1596.4761,-24.852 1597.4131,-17.9149"/>
</g>
<!-- 52&#45;&gt;62 -->
<g id="edge114" class="edge">
<title>52-&gt;62</title>
<path fill="none" stroke="#c0c0c0" stroke-width="2" d="M1719.7766,-223.5306C1688.851,-211.6234 1637.9857,-192.0389 1601.9559,-178.1664"/>
<polygon fill="#c0c0c0" stroke="#c0c0c0" stroke-width="2" points="1602.8057,-174.7432 1592.2159,-174.4163 1600.2904,-181.2758 1602.8057,-174.7432"/>
</g>
<!-- 53&#45;&gt;0 -->
<g id="edge53" class="edge">
<title>53-&gt;0</title>
<path fill="none" stroke="#c0c0c0" stroke-width="2" d="M1858.0931,-215.9236C1859.1142,-182.4211 1856.1353,-110.5923 1815.968,-72 1785.0824,-42.3255 1660.7721,-27.0666 1597.4467,-21.0882"/>
<polygon fill="#c0c0c0" stroke="#c0c0c0" stroke-width="2" points="1597.3755,-17.5672 1587.0986,-20.1428 1596.7386,-24.5381 1597.3755,-17.5672"/>
</g>
<!-- 53&#45;&gt;62 -->
<g id="edge115" class="edge">
<title>53-&gt;62</title>
<path fill="none" stroke="#c0c0c0" stroke-width="2" d="M1829.9064,-227.4104C1815.8972,-224.0009 1798.5151,-219.7732 1782.968,-216 1720.1202,-200.747 1647.2969,-183.1218 1602.4283,-172.2681"/>
<polygon fill="#c0c0c0" stroke="#c0c0c0" stroke-width="2" points="1603.0126,-168.8086 1592.47,-169.8593 1601.3668,-175.6124 1603.0126,-168.8086"/>
</g>
<!-- 54&#45;&gt;0 -->
<g id="edge54" class="edge">
<title>54-&gt;0</title>
<path fill="none" stroke="#c0c0c0" stroke-width="2" d="M2006.3477,-215.9007C2007.8352,-182.0328 2005.6625,-109.1554 1963.968,-72 1936.7572,-47.7515 1691.678,-27.5577 1597.0318,-20.5978"/>
<polygon fill="#c0c0c0" stroke="#c0c0c0" stroke-width="2" points="1597.2688,-17.1059 1587.0413,-19.8713 1596.7611,-24.0874 1597.2688,-17.1059"/>
</g>
<!-- 54&#45;&gt;62 -->
<g id="edge116" class="edge">
<title>54-&gt;62</title>
<path fill="none" stroke="#c0c0c0" stroke-width="2" d="M1977.8011,-229.6045C1902.8496,-217.4775 1692.7302,-183.4806 1602.2672,-168.8439"/>
<polygon fill="#c0c0c0" stroke="#c0c0c0" stroke-width="2" points="1602.7864,-165.3825 1592.3557,-167.2403 1601.6683,-172.2926 1602.7864,-165.3825"/>
</g>
<!-- 55&#45;&gt;0 -->
<g id="edge55" class="edge">
<title>55-&gt;0</title>
<path fill="none" stroke="#c0c0c0" stroke-width="2" d="M2116.4436,-215.7915C2118.093,-181.7393 2116.1823,-108.5638 2073.968,-72 2038.0362,-40.8778 1709.3815,-24.2781 1597.2514,-19.4839"/>
<polygon fill="#c0c0c0" stroke="#c0c0c0" stroke-width="2" points="1597.2313,-15.98 1587.0931,-19.0566 1596.9372,-22.9738 1597.2313,-15.98"/>
</g>
<!-- 55&#45;&gt;62 -->
<g id="edge117" class="edge">
<title>55-&gt;62</title>
<path fill="none" stroke="#c0c0c0" stroke-width="2" d="M2087.7317,-226.4989C2073.8275,-222.8935 2056.5913,-218.7656 2040.968,-216 1880.2817,-187.5555 1686.5973,-171.1921 1602.4415,-164.9489"/>
<polygon fill="#c0c0c0" stroke="#c0c0c0" stroke-width="2" points="1602.4846,-161.4428 1592.2557,-164.2032 1601.9734,-168.4241 1602.4846,-161.4428"/>
</g>
<!-- 56&#45;&gt;0 -->
<g id="edge56" class="edge">
<title>56-&gt;0</title>
<path fill="none" stroke="#c0c0c0" stroke-width="2" d="M2264.5077,-215.9661C2266.3113,-181.876 2264.7158,-108.1636 2221.968,-72 2174.1287,-31.5291 1730.2718,-20.8537 1597.3844,-18.5532"/>
<polygon fill="#c0c0c0" stroke="#c0c0c0" stroke-width="2" points="1597.3436,-15.0521 1587.2864,-18.3843 1597.2264,-22.0512 1597.3436,-15.0521"/>
</g>
<!-- 56&#45;&gt;62 -->
<g id="edge118" class="edge">
<title>56-&gt;62</title>
<path fill="none" stroke="#c0c0c0" stroke-width="2" d="M2235.8842,-229.1159C2213.2468,-225.1616 2180.0822,-219.6653 2150.968,-216 1946.0624,-190.2037 1699.7068,-171.6978 1602.4346,-164.8808"/>
<polygon fill="#c0c0c0" stroke="#c0c0c0" stroke-width="2" points="1602.6236,-161.3856 1592.4046,-164.1824 1602.1373,-168.3687 1602.6236,-161.3856"/>
</g>
<!-- 57&#45;&gt;0 -->
<g id="edge57" class="edge">
<title>57-&gt;0</title>
<path fill="none" stroke="#c0c0c0" stroke-width="2" d="M2374.5455,-215.9211C2376.4138,-181.7541 2374.9241,-107.916 2331.968,-72 2303.4692,-48.1719 1747.8845,-25.2067 1597.3245,-19.402"/>
<polygon fill="#c0c0c0" stroke="#c0c0c0" stroke-width="2" points="1597.3236,-15.8995 1587.1969,-19.0139 1597.0555,-22.8943 1597.3236,-15.8995"/>
</g>
<!-- 57&#45;&gt;62 -->
<g id="edge119" class="edge">
<title>57-&gt;62</title>
<path fill="none" stroke="#c0c0c0" stroke-width="2" d="M2345.7747,-226.2415C2331.8815,-222.5705 2314.6421,-218.4616 2298.968,-216 2036.1677,-174.7277 1715.7267,-164.8978 1602.2517,-162.6437"/>
<polygon fill="#c0c0c0" stroke="#c0c0c0" stroke-width="2" points="1602.3019,-159.1442 1592.2373,-162.4541 1602.1692,-166.1429 1602.3019,-159.1442"/>
</g>
<!-- 58&#45;&gt;0 -->
<g id="edge58" class="edge">
<title>58-&gt;0</title>
<path fill="none" stroke="#c0c0c0" stroke-width="2" d="M2560.5895,-215.8682C2562.5329,-181.6107 2561.166,-107.6247 2517.968,-72 2481.8555,-42.2186 1770.4896,-23.1021 1597.5944,-18.884"/>
<polygon fill="#c0c0c0" stroke="#c0c0c0" stroke-width="2" points="1597.5356,-15.3817 1587.4538,-18.6387 1597.3662,-22.3796 1597.5356,-15.3817"/>
</g>
<!-- 58&#45;&gt;62 -->
<g id="edge120" class="edge">
<title>58-&gt;62</title>
<path fill="none" stroke="#c0c0c0" stroke-width="2" d="M2531.9184,-230.2922C2501.9197,-226.288 2452.0641,-219.9532 2408.968,-216 2100.2803,-187.6841 1727.0854,-169.5013 1602.6444,-163.8691"/>
<polygon fill="#c0c0c0" stroke="#c0c0c0" stroke-width="2" points="1602.5525,-160.3616 1592.4053,-163.4087 1602.238,-167.3545 1602.5525,-160.3616"/>
</g>
<!-- 59&#45;&gt;0 -->
<g id="edge59" class="edge">
<title>59-&gt;0</title>
<path fill="none" stroke="#c0c0c0" stroke-width="2" d="M2746.619,-215.8323C2748.6128,-181.5134 2747.3283,-107.4269 2703.968,-72 2660.144,-36.1943 1789.2653,-21.3632 1597.2233,-18.5213"/>
<polygon fill="#c0c0c0" stroke="#c0c0c0" stroke-width="2" points="1597.1196,-15.0195 1587.0694,-18.3729 1597.0172,-22.0187 1597.1196,-15.0195"/>
</g>
<!-- 59&#45;&gt;62 -->
<g id="edge121" class="edge">
<title>59-&gt;62</title>
<path fill="none" stroke="#c0c0c0" stroke-width="2" d="M2717.9267,-230.1991C2687.9352,-226.1135 2638.0859,-219.7077 2594.968,-216 2210.5872,-182.9476 1744.0358,-167.3807 1602.601,-163.1954"/>
<polygon fill="#c0c0c0" stroke="#c0c0c0" stroke-width="2" points="1602.3143,-159.6856 1592.2162,-162.8913 1602.1094,-166.6826 1602.3143,-159.6856"/>
</g>
<!-- 60&#45;&gt;0 -->
<g id="edge60" class="edge">
<title>60-&gt;0</title>
<path fill="none" stroke="#c0c0c0" stroke-width="2" d="M2932.6401,-215.8063C2934.6701,-181.443 2933.4448,-107.2838 2889.968,-72 2838.4346,-30.1778 1808.1227,-19.9294 1597.4122,-18.2676"/>
<polygon fill="#c0c0c0" stroke="#c0c0c0" stroke-width="2" points="1597.2008,-14.766 1587.1741,-18.1886 1597.1467,-21.7658 1597.2008,-14.766"/>
</g>
<!-- 60&#45;&gt;62 -->
<g id="edge122" class="edge">
<title>60-&gt;62</title>
<path fill="none" stroke="#c0c0c0" stroke-width="2" d="M2903.9321,-230.1343C2873.9454,-225.9919 2824.1003,-219.5367 2780.968,-216 2320.4843,-178.2421 1759.9877,-165.6483 1602.7635,-162.7276"/>
<polygon fill="#c0c0c0" stroke="#c0c0c0" stroke-width="2" points="1602.6329,-159.2248 1592.5706,-162.5415 1602.505,-166.2236 1602.6329,-159.2248"/>
</g>
<!-- 61 -->
<g id="node62" class="node">
<title>61</title>
<path fill="none" stroke="#d85656" stroke-width="2" stroke-dasharray="5,2" d="M1575.951,-108C1575.951,-108 1543.985,-108 1543.985,-108 1537.985,-108 1531.985,-102 1531.985,-96 1531.985,-96 1531.985,-84 1531.985,-84 1531.985,-78 1537.985,-72 1543.985,-72 1543.985,-72 1575.951,-72 1575.951,-72 1581.951,-72 1587.951,-78 1587.951,-84 1587.951,-84 1587.951,-96 1587.951,-96 1587.951,-102 1581.951,-108 1575.951,-108"/>
<text text-anchor="middle" x="1559.968" y="-87" font-family="sans" font-size="10.00" fill="#000000">normalize</text>
</g>
<!-- 61&#45;&gt;0 -->
<g id="edge61" class="edge">
<title>61-&gt;0</title>
<path fill="none" stroke="#c0c0c0" stroke-width="2" d="M1559.968,-71.8314C1559.968,-64.131 1559.968,-54.9743 1559.968,-46.4166"/>
<polygon fill="#c0c0c0" stroke="#c0c0c0" stroke-width="2" points="1563.4681,-46.4132 1559.968,-36.4133 1556.4681,-46.4133 1563.4681,-46.4132"/>
</g>
<!-- 62&#45;&gt;61 -->
<g id="edge102" class="edge">
<title>62-&gt;61</title>
<path fill="none" stroke="#c0c0c0" stroke-width="2" d="M1559.968,-143.8314C1559.968,-136.131 1559.968,-126.9743 1559.968,-118.4166"/>
<polygon fill="#c0c0c0" stroke="#c0c0c0" stroke-width="2" points="1563.4681,-118.4132 1559.968,-108.4133 1556.4681,-118.4133 1563.4681,-118.4132"/>
</g>
</g>
</svg>